<?xml version="1.0" encoding="utf-8" standalone="no"?>
<!DOCTYPE svg PUBLIC "-//W3C//DTD SVG 1.1//EN"
  "http://www.w3.org/Graphics/SVG/1.1/DTD/svg11.dtd">
<svg xmlns:xlink="http://www.w3.org/1999/xlink" width="710.476406pt" height="425.522969pt" viewBox="0 0 710.476406 425.522969" xmlns="http://www.w3.org/2000/svg" version="1.1">
 <metadata>
  <rdf:RDF xmlns:dc="http://purl.org/dc/elements/1.1/" xmlns:cc="http://creativecommons.org/ns#" xmlns:rdf="http://www.w3.org/1999/02/22-rdf-syntax-ns#">
   <cc:Work>
    <dc:type rdf:resource="http://purl.org/dc/dcmitype/StillImage"/>
    <dc:date>2022-11-21T10:25:39.308419</dc:date>
    <dc:format>image/svg+xml</dc:format>
    <dc:creator>
     <cc:Agent>
      <dc:title>Matplotlib v3.5.0, https://matplotlib.org/</dc:title>
     </cc:Agent>
    </dc:creator>
   </cc:Work>
  </rdf:RDF>
 </metadata>
 <defs>
  <style type="text/css">*{stroke-linejoin: round; stroke-linecap: butt}</style>
 </defs>
 <g id="figure_1">
  <g id="patch_1">
   <path d="M -0 425.522969 
L 710.476406 425.522969 
L 710.476406 0 
L -0 0 
z
" style="fill: #ffffff"/>
  </g>
  <g id="axes_1">
   <g id="patch_2">
    <path d="M 47.051406 175.68875 
L 696.326406 175.68875 
L 696.326406 21.935625 
L 47.051406 21.935625 
z
" style="fill: #eaeaf2"/>
   </g>
   <g id="matplotlib.axis_1">
    <g id="xtick_1">
     <g id="line2d_1">
      <path d="M 47.051406 175.68875 
L 47.051406 21.935625 
" clip-path="url(#padf12c1fa4)" style="fill: none; stroke: #ffffff; stroke-width: 0.8; stroke-linecap: round"/>
     </g>
     <g id="text_1">
      <!-- 0.0 -->
      <g style="fill: #262626" transform="translate(40.101406 189.846562)scale(0.1 -0.1)">
       <defs>
        <path id="ArialMT-30" d="M 266 2259 
Q 266 3072 433 3567 
Q 600 4063 929 4331 
Q 1259 4600 1759 4600 
Q 2128 4600 2406 4451 
Q 2684 4303 2865 4023 
Q 3047 3744 3150 3342 
Q 3253 2941 3253 2259 
Q 3253 1453 3087 958 
Q 2922 463 2592 192 
Q 2263 -78 1759 -78 
Q 1097 -78 719 397 
Q 266 969 266 2259 
z
M 844 2259 
Q 844 1131 1108 757 
Q 1372 384 1759 384 
Q 2147 384 2411 759 
Q 2675 1134 2675 2259 
Q 2675 3391 2411 3762 
Q 2147 4134 1753 4134 
Q 1366 4134 1134 3806 
Q 844 3388 844 2259 
z
" transform="scale(0.015625)"/>
        <path id="ArialMT-2e" d="M 581 0 
L 581 641 
L 1222 641 
L 1222 0 
L 581 0 
z
" transform="scale(0.015625)"/>
       </defs>
       <use xlink:href="#ArialMT-30"/>
       <use xlink:href="#ArialMT-2e" x="55.615234"/>
       <use xlink:href="#ArialMT-30" x="83.398438"/>
      </g>
     </g>
    </g>
    <g id="xtick_2">
     <g id="line2d_2">
      <path d="M 128.210781 175.68875 
L 128.210781 21.935625 
" clip-path="url(#padf12c1fa4)" style="fill: none; stroke: #ffffff; stroke-width: 0.8; stroke-linecap: round"/>
     </g>
     <g id="text_2">
      <!-- 0.5 -->
      <g style="fill: #262626" transform="translate(121.260781 189.846562)scale(0.1 -0.1)">
       <defs>
        <path id="ArialMT-35" d="M 266 1200 
L 856 1250 
Q 922 819 1161 601 
Q 1400 384 1738 384 
Q 2144 384 2425 690 
Q 2706 997 2706 1503 
Q 2706 1984 2436 2262 
Q 2166 2541 1728 2541 
Q 1456 2541 1237 2417 
Q 1019 2294 894 2097 
L 366 2166 
L 809 4519 
L 3088 4519 
L 3088 3981 
L 1259 3981 
L 1013 2750 
Q 1425 3038 1878 3038 
Q 2478 3038 2890 2622 
Q 3303 2206 3303 1553 
Q 3303 931 2941 478 
Q 2500 -78 1738 -78 
Q 1113 -78 717 272 
Q 322 622 266 1200 
z
" transform="scale(0.015625)"/>
       </defs>
       <use xlink:href="#ArialMT-30"/>
       <use xlink:href="#ArialMT-2e" x="55.615234"/>
       <use xlink:href="#ArialMT-35" x="83.398438"/>
      </g>
     </g>
    </g>
    <g id="xtick_3">
     <g id="line2d_3">
      <path d="M 209.370156 175.68875 
L 209.370156 21.935625 
" clip-path="url(#padf12c1fa4)" style="fill: none; stroke: #ffffff; stroke-width: 0.8; stroke-linecap: round"/>
     </g>
     <g id="text_3">
      <!-- 1.0 -->
      <g style="fill: #262626" transform="translate(202.420156 189.846562)scale(0.1 -0.1)">
       <defs>
        <path id="ArialMT-31" d="M 2384 0 
L 1822 0 
L 1822 3584 
Q 1619 3391 1289 3197 
Q 959 3003 697 2906 
L 697 3450 
Q 1169 3672 1522 3987 
Q 1875 4303 2022 4600 
L 2384 4600 
L 2384 0 
z
" transform="scale(0.015625)"/>
       </defs>
       <use xlink:href="#ArialMT-31"/>
       <use xlink:href="#ArialMT-2e" x="55.615234"/>
       <use xlink:href="#ArialMT-30" x="83.398438"/>
      </g>
     </g>
    </g>
    <g id="xtick_4">
     <g id="line2d_4">
      <path d="M 290.529531 175.68875 
L 290.529531 21.935625 
" clip-path="url(#padf12c1fa4)" style="fill: none; stroke: #ffffff; stroke-width: 0.8; stroke-linecap: round"/>
     </g>
     <g id="text_4">
      <!-- 1.5 -->
      <g style="fill: #262626" transform="translate(283.579531 189.846562)scale(0.1 -0.1)">
       <use xlink:href="#ArialMT-31"/>
       <use xlink:href="#ArialMT-2e" x="55.615234"/>
       <use xlink:href="#ArialMT-35" x="83.398438"/>
      </g>
     </g>
    </g>
    <g id="xtick_5">
     <g id="line2d_5">
      <path d="M 371.688906 175.68875 
L 371.688906 21.935625 
" clip-path="url(#padf12c1fa4)" style="fill: none; stroke: #ffffff; stroke-width: 0.8; stroke-linecap: round"/>
     </g>
     <g id="text_5">
      <!-- 2.0 -->
      <g style="fill: #262626" transform="translate(364.738906 189.846562)scale(0.1 -0.1)">
       <defs>
        <path id="ArialMT-32" d="M 3222 541 
L 3222 0 
L 194 0 
Q 188 203 259 391 
Q 375 700 629 1000 
Q 884 1300 1366 1694 
Q 2113 2306 2375 2664 
Q 2638 3022 2638 3341 
Q 2638 3675 2398 3904 
Q 2159 4134 1775 4134 
Q 1369 4134 1125 3890 
Q 881 3647 878 3216 
L 300 3275 
Q 359 3922 746 4261 
Q 1134 4600 1788 4600 
Q 2447 4600 2831 4234 
Q 3216 3869 3216 3328 
Q 3216 3053 3103 2787 
Q 2991 2522 2730 2228 
Q 2469 1934 1863 1422 
Q 1356 997 1212 845 
Q 1069 694 975 541 
L 3222 541 
z
" transform="scale(0.015625)"/>
       </defs>
       <use xlink:href="#ArialMT-32"/>
       <use xlink:href="#ArialMT-2e" x="55.615234"/>
       <use xlink:href="#ArialMT-30" x="83.398438"/>
      </g>
     </g>
    </g>
    <g id="xtick_6">
     <g id="line2d_6">
      <path d="M 452.848281 175.68875 
L 452.848281 21.935625 
" clip-path="url(#padf12c1fa4)" style="fill: none; stroke: #ffffff; stroke-width: 0.8; stroke-linecap: round"/>
     </g>
     <g id="text_6">
      <!-- 2.5 -->
      <g style="fill: #262626" transform="translate(445.898281 189.846562)scale(0.1 -0.1)">
       <use xlink:href="#ArialMT-32"/>
       <use xlink:href="#ArialMT-2e" x="55.615234"/>
       <use xlink:href="#ArialMT-35" x="83.398438"/>
      </g>
     </g>
    </g>
    <g id="xtick_7">
     <g id="line2d_7">
      <path d="M 534.007656 175.68875 
L 534.007656 21.935625 
" clip-path="url(#padf12c1fa4)" style="fill: none; stroke: #ffffff; stroke-width: 0.8; stroke-linecap: round"/>
     </g>
     <g id="text_7">
      <!-- 3.0 -->
      <g style="fill: #262626" transform="translate(527.057656 189.846562)scale(0.1 -0.1)">
       <defs>
        <path id="ArialMT-33" d="M 269 1209 
L 831 1284 
Q 928 806 1161 595 
Q 1394 384 1728 384 
Q 2125 384 2398 659 
Q 2672 934 2672 1341 
Q 2672 1728 2419 1979 
Q 2166 2231 1775 2231 
Q 1616 2231 1378 2169 
L 1441 2663 
Q 1497 2656 1531 2656 
Q 1891 2656 2178 2843 
Q 2466 3031 2466 3422 
Q 2466 3731 2256 3934 
Q 2047 4138 1716 4138 
Q 1388 4138 1169 3931 
Q 950 3725 888 3313 
L 325 3413 
Q 428 3978 793 4289 
Q 1159 4600 1703 4600 
Q 2078 4600 2393 4439 
Q 2709 4278 2876 4000 
Q 3044 3722 3044 3409 
Q 3044 3113 2884 2869 
Q 2725 2625 2413 2481 
Q 2819 2388 3044 2092 
Q 3269 1797 3269 1353 
Q 3269 753 2831 336 
Q 2394 -81 1725 -81 
Q 1122 -81 723 278 
Q 325 638 269 1209 
z
" transform="scale(0.015625)"/>
       </defs>
       <use xlink:href="#ArialMT-33"/>
       <use xlink:href="#ArialMT-2e" x="55.615234"/>
       <use xlink:href="#ArialMT-30" x="83.398438"/>
      </g>
     </g>
    </g>
    <g id="xtick_8">
     <g id="line2d_8">
      <path d="M 615.167031 175.68875 
L 615.167031 21.935625 
" clip-path="url(#padf12c1fa4)" style="fill: none; stroke: #ffffff; stroke-width: 0.8; stroke-linecap: round"/>
     </g>
     <g id="text_8">
      <!-- 3.5 -->
      <g style="fill: #262626" transform="translate(608.217031 189.846562)scale(0.1 -0.1)">
       <use xlink:href="#ArialMT-33"/>
       <use xlink:href="#ArialMT-2e" x="55.615234"/>
       <use xlink:href="#ArialMT-35" x="83.398438"/>
      </g>
     </g>
    </g>
    <g id="xtick_9">
     <g id="line2d_9">
      <path d="M 696.326406 175.68875 
L 696.326406 21.935625 
" clip-path="url(#padf12c1fa4)" style="fill: none; stroke: #ffffff; stroke-width: 0.8; stroke-linecap: round"/>
     </g>
     <g id="text_9">
      <!-- 4.0 -->
      <g style="fill: #262626" transform="translate(689.376406 189.846562)scale(0.1 -0.1)">
       <defs>
        <path id="ArialMT-34" d="M 2069 0 
L 2069 1097 
L 81 1097 
L 81 1613 
L 2172 4581 
L 2631 4581 
L 2631 1613 
L 3250 1613 
L 3250 1097 
L 2631 1097 
L 2631 0 
L 2069 0 
z
M 2069 1613 
L 2069 3678 
L 634 1613 
L 2069 1613 
z
" transform="scale(0.015625)"/>
       </defs>
       <use xlink:href="#ArialMT-34"/>
       <use xlink:href="#ArialMT-2e" x="55.615234"/>
       <use xlink:href="#ArialMT-30" x="83.398438"/>
      </g>
     </g>
    </g>
    <g id="text_10">
     <!-- $x$ -->
     <g style="fill: #262626" transform="translate(367.788906 205.139219)scale(0.13 -0.13)">
      <defs>
       <path id="DejaVuSans-Oblique-78" d="M 3841 3500 
L 2234 1784 
L 3219 0 
L 2559 0 
L 1819 1388 
L 531 0 
L -166 0 
L 1556 1844 
L 641 3500 
L 1300 3500 
L 1972 2234 
L 3144 3500 
L 3841 3500 
z
" transform="scale(0.015625)"/>
      </defs>
      <use xlink:href="#DejaVuSans-Oblique-78" transform="translate(0 0.3125)"/>
     </g>
    </g>
   </g>
   <g id="matplotlib.axis_2">
    <g id="ytick_1">
     <g id="line2d_10">
      <path d="M 47.051406 159.03718 
L 696.326406 159.03718 
" clip-path="url(#padf12c1fa4)" style="fill: none; stroke: #ffffff; stroke-width: 0.8; stroke-linecap: round"/>
     </g>
     <g id="text_11">
      <!-- −20 -->
      <g style="fill: #262626" transform="translate(23.088906 162.616087)scale(0.1 -0.1)">
       <defs>
        <path id="ArialMT-2212" d="M 3381 1997 
L 356 1997 
L 356 2522 
L 3381 2522 
L 3381 1997 
z
" transform="scale(0.015625)"/>
       </defs>
       <use xlink:href="#ArialMT-2212"/>
       <use xlink:href="#ArialMT-32" x="58.398438"/>
       <use xlink:href="#ArialMT-30" x="114.013672"/>
      </g>
     </g>
    </g>
    <g id="ytick_2">
     <g id="line2d_11">
      <path d="M 47.051406 125.368998 
L 696.326406 125.368998 
" clip-path="url(#padf12c1fa4)" style="fill: none; stroke: #ffffff; stroke-width: 0.8; stroke-linecap: round"/>
     </g>
     <g id="text_12">
      <!-- 0 -->
      <g style="fill: #262626" transform="translate(34.490469 128.947904)scale(0.1 -0.1)">
       <use xlink:href="#ArialMT-30"/>
      </g>
     </g>
    </g>
    <g id="ytick_3">
     <g id="line2d_12">
      <path d="M 47.051406 91.700815 
L 696.326406 91.700815 
" clip-path="url(#padf12c1fa4)" style="fill: none; stroke: #ffffff; stroke-width: 0.8; stroke-linecap: round"/>
     </g>
     <g id="text_13">
      <!-- 20 -->
      <g style="fill: #262626" transform="translate(28.929531 95.279721)scale(0.1 -0.1)">
       <use xlink:href="#ArialMT-32"/>
       <use xlink:href="#ArialMT-30" x="55.615234"/>
      </g>
     </g>
    </g>
    <g id="ytick_4">
     <g id="line2d_13">
      <path d="M 47.051406 58.032633 
L 696.326406 58.032633 
" clip-path="url(#padf12c1fa4)" style="fill: none; stroke: #ffffff; stroke-width: 0.8; stroke-linecap: round"/>
     </g>
     <g id="text_14">
      <!-- 40 -->
      <g style="fill: #262626" transform="translate(28.929531 61.611539)scale(0.1 -0.1)">
       <use xlink:href="#ArialMT-34"/>
       <use xlink:href="#ArialMT-30" x="55.615234"/>
      </g>
     </g>
    </g>
    <g id="ytick_5">
     <g id="line2d_14">
      <path d="M 47.051406 24.36445 
L 696.326406 24.36445 
" clip-path="url(#padf12c1fa4)" style="fill: none; stroke: #ffffff; stroke-width: 0.8; stroke-linecap: round"/>
     </g>
     <g id="text_15">
      <!-- 60 -->
      <g style="fill: #262626" transform="translate(28.929531 27.943356)scale(0.1 -0.1)">
       <defs>
        <path id="ArialMT-36" d="M 3184 3459 
L 2625 3416 
Q 2550 3747 2413 3897 
Q 2184 4138 1850 4138 
Q 1581 4138 1378 3988 
Q 1113 3794 959 3422 
Q 806 3050 800 2363 
Q 1003 2672 1297 2822 
Q 1591 2972 1913 2972 
Q 2475 2972 2870 2558 
Q 3266 2144 3266 1488 
Q 3266 1056 3080 686 
Q 2894 316 2569 119 
Q 2244 -78 1831 -78 
Q 1128 -78 684 439 
Q 241 956 241 2144 
Q 241 3472 731 4075 
Q 1159 4600 1884 4600 
Q 2425 4600 2770 4297 
Q 3116 3994 3184 3459 
z
M 888 1484 
Q 888 1194 1011 928 
Q 1134 663 1356 523 
Q 1578 384 1822 384 
Q 2178 384 2434 671 
Q 2691 959 2691 1453 
Q 2691 1928 2437 2201 
Q 2184 2475 1800 2475 
Q 1419 2475 1153 2201 
Q 888 1928 888 1484 
z
" transform="scale(0.015625)"/>
       </defs>
       <use xlink:href="#ArialMT-36"/>
       <use xlink:href="#ArialMT-30" x="55.615234"/>
      </g>
     </g>
    </g>
    <g id="text_16">
     <!-- $y$ -->
     <g style="fill: #262626" transform="translate(16.358906 102.712187)rotate(-90)scale(0.13 -0.13)">
      <defs>
       <path id="DejaVuSans-Oblique-79" d="M 1588 -325 
Q 1188 -997 936 -1164 
Q 684 -1331 294 -1331 
L -159 -1331 
L -63 -850 
L 269 -850 
Q 509 -850 678 -719 
Q 847 -588 1056 -206 
L 1234 128 
L 459 3500 
L 1069 3500 
L 1650 819 
L 3256 3500 
L 3859 3500 
L 1588 -325 
z
" transform="scale(0.015625)"/>
      </defs>
      <use xlink:href="#DejaVuSans-Oblique-79" transform="translate(0 0.3125)"/>
     </g>
    </g>
   </g>
   <g id="PolyCollection_1">
    <defs>
     <path id="m4b10464125" d="M 47.051406 -305.891054 
L 47.051406 -300.766714 
L 55.825393 -303.670883 
L 64.599379 -308.093295 
L 73.373366 -312.588156 
L 82.147352 -317.110243 
L 90.921339 -320.592413 
L 99.695325 -320.618009 
L 108.469312 -316.162444 
L 117.243298 -309.230386 
L 126.017285 -302.650964 
L 134.791271 -298.28876 
L 143.565258 -297.393407 
L 152.339244 -299.673121 
L 161.113231 -303.660961 
L 169.887217 -308.001942 
L 178.661204 -312.682931 
L 187.43519 -316.676229 
L 196.209177 -317.322503 
L 204.983163 -313.21529 
L 213.757149 -306.321724 
L 222.531136 -299.658918 
L 231.305122 -295.117667 
L 240.079109 -293.915882 
L 248.853095 -295.924957 
L 257.627082 -299.93959 
L 266.401068 -304.581698 
L 275.175055 -309.78511 
L 283.949041 -314.630434 
L 292.723028 -316.304336 
L 301.497014 -313.035538 
L 310.271001 -306.70194 
L 319.044987 -300.445925 
L 327.818974 -296.176513 
L 336.59296 -295.094446 
L 345.366947 -297.269598 
L 354.140933 -301.732433 
L 362.91492 -307.015416 
L 371.688906 -312.90961 
L 380.462893 -318.593672 
L 389.236879 -321.304826 
L 398.010866 -319.204043 
L 406.784852 -313.840286 
L 415.558839 -308.276431 
L 424.332825 -304.446798 
L 433.106812 -303.607965 
L 441.880798 -306.064641 
L 450.654785 -311.025568 
L 459.428771 -316.929725 
L 468.202758 -323.395062 
L 476.976744 -329.691162 
L 485.750731 -333.191772 
L 494.524717 -332.057402 
L 503.298704 -327.448919 
L 512.07269 -322.247628 
L 520.846677 -318.416016 
L 529.620663 -317.362471 
L 538.394649 -319.654637 
L 547.168636 -324.592489 
L 555.942622 -330.533723 
L 564.716609 -336.952942 
L 573.490595 -343.27374 
L 582.264582 -346.97476 
L 591.038568 -346.037426 
L 599.812555 -341.277717 
L 608.586541 -335.480207 
L 617.360528 -330.721207 
L 626.134514 -328.604119 
L 634.908501 -329.908062 
L 643.682487 -333.960384 
L 652.456474 -339.049719 
L 661.23046 -344.51887 
L 670.004447 -350.019773 
L 678.778433 -353.23282 
L 687.55242 -351.802252 
L 696.326406 -346.130315 
L 696.326406 -350.995322 
L 696.326406 -350.995322 
L 687.55242 -355.993045 
L 678.778433 -357.146377 
L 670.004447 -354.415803 
L 661.23046 -349.802986 
L 652.456474 -345.01207 
L 643.682487 -340.009753 
L 634.908501 -335.394543 
L 626.134514 -333.551553 
L 617.360528 -335.551801 
L 608.586541 -340.195652 
L 599.812555 -346.039599 
L 591.038568 -350.457587 
L 582.264582 -351.022164 
L 573.490595 -347.553663 
L 564.716609 -342.090123 
L 555.942622 -336.457958 
L 547.168636 -330.662947 
L 538.394649 -325.110187 
L 529.620663 -322.170716 
L 520.846677 -323.324934 
L 512.07269 -327.408273 
L 503.298704 -332.864144 
L 494.524717 -337.168998 
L 485.750731 -337.829688 
L 476.976744 -334.451517 
L 468.202758 -328.883288 
L 459.428771 -323.103577 
L 450.654785 -317.268856 
L 441.880798 -311.621606 
L 433.106812 -308.453033 
L 424.332825 -309.551857 
L 415.558839 -313.760423 
L 406.784852 -319.430372 
L 398.010866 -324.21572 
L 389.236879 -325.688164 
L 380.462893 -323.286316 
L 371.688906 -318.435655 
L 362.91492 -313.169837 
L 354.140933 -307.897212 
L 345.366947 -302.767097 
L 336.59296 -299.941505 
L 327.818974 -301.396067 
L 319.044987 -306.043238 
L 310.271001 -312.234782 
L 301.497014 -317.800382 
L 292.723028 -320.331035 
L 283.949041 -319.062566 
L 275.175055 -315.02576 
L 266.401068 -310.335111 
L 257.627082 -305.681369 
L 248.853095 -301.147319 
L 240.079109 -298.714746 
L 231.305122 -300.452715 
L 222.531136 -305.41943 
L 213.757149 -312.047021 
L 204.983163 -318.342235 
L 196.209177 -321.768531 
L 187.43519 -321.151958 
L 178.661204 -317.395883 
L 169.887217 -312.839018 
L 161.113231 -308.472987 
L 152.339244 -304.290019 
L 143.565258 -301.988075 
L 134.791271 -303.661252 
L 126.017285 -308.585779 
L 117.243298 -315.303151 
L 108.469312 -321.979944 
L 99.695325 -325.944211 
L 90.921339 -325.599898 
L 82.147352 -321.716833 
L 73.373366 -316.883923 
L 64.599379 -312.479713 
L 55.825393 -308.391402 
L 47.051406 -305.891054 
z
" style="stroke: #ff0000; stroke-opacity: 0.15"/>
    </defs>
    <g clip-path="url(#padf12c1fa4)">
     <use xlink:href="#m4b10464125" x="0" y="425.522969" style="fill: #ff0000; fill-opacity: 0.15; stroke: #ff0000; stroke-opacity: 0.15"/>
    </g>
   </g>
   <g id="line2d_15">
    <path d="M 47.051406 125.368998 
L 55.825393 116.696345 
L 64.599379 110.474121 
L 73.373366 108.468109 
L 82.147352 111.236275 
L 90.921339 117.969673 
L 99.695325 126.723105 
L 108.469312 134.969774 
L 117.243298 140.321771 
L 126.017285 141.210959 
L 134.791271 137.336111 
L 143.565258 129.748802 
L 152.339244 120.553562 
L 161.113231 112.307794 
L 169.887217 107.292563 
L 178.661204 106.862168 
L 187.43519 111.057989 
L 196.209177 118.596678 
L 204.983163 127.236099 
L 213.757149 134.414643 
L 222.531136 137.981646 
L 231.305122 136.81062 
L 240.079109 131.120467 
L 248.853095 122.413055 
L 257.627082 113.044978 
L 266.401068 105.555603 
L 275.175055 101.942997 
L 283.949041 103.094197 
L 292.723028 108.532288 
L 301.497014 116.552385 
L 310.271001 124.707762 
L 319.044987 130.507511 
L 327.818974 132.126795 
L 336.59296 128.927177 
L 345.366947 121.638668 
L 354.140933 112.15157 
L 362.91492 102.977476 
L 371.688906 96.533121 
L 380.462893 94.451275 
L 389.236879 97.115179 
L 398.010866 103.549265 
L 406.784852 111.697332 
L 415.558839 119.008845 
L 424.332825 123.166195 
L 433.106812 122.745535 
L 441.880798 117.622778 
L 450.654785 109.008974 
L 459.428771 99.104998 
L 468.202758 90.473992 
L 476.976744 85.310515 
L 485.750731 84.814791 
L 494.524717 88.850473 
L 503.298704 95.983529 
L 512.07269 103.891133 
L 520.846677 110.023997 
L 529.620663 112.333268 
L 538.394649 109.854741 
L 547.168636 102.983783 
L 555.942622 93.362607 
L 564.716609 83.412007 
L 573.490595 75.641101 
L 582.264582 71.931879 
L 591.038568 73.00258 
L 599.812555 78.202891 
L 608.586541 85.699377 
L 617.360528 92.998265 
L 626.134514 97.656516 
L 634.908501 97.978426 
L 643.682487 93.499143 
L 652.456474 85.117208 
L 661.23046 74.838352 
L 670.004447 65.203579 
L 678.778433 58.564631 
L 687.55242 56.413416 
L 696.326406 58.956603 
" clip-path="url(#padf12c1fa4)" style="fill: none; stroke-dasharray: 5.55,2.4; stroke-dashoffset: 0; stroke: #0000ff; stroke-width: 1.5"/>
   </g>
   <g id="line2d_16">
    <path d="M 47.051406 122.194085 
L 55.825393 119.491826 
L 64.599379 115.236465 
L 73.373366 110.786929 
L 82.147352 106.109431 
L 90.921339 102.426813 
L 99.695325 102.241859 
L 108.469312 106.451775 
L 117.243298 113.2562 
L 126.017285 119.904597 
L 134.791271 124.547963 
L 143.565258 125.832227 
L 152.339244 123.541399 
L 161.113231 119.455994 
L 169.887217 115.102489 
L 178.661204 110.483562 
L 187.43519 106.608875 
L 196.209177 105.977452 
L 204.983163 109.744206 
L 213.757149 116.338596 
L 222.531136 122.983795 
L 231.305122 127.737778 
L 240.079109 129.207655 
L 248.853095 126.98683 
L 257.627082 122.712489 
L 266.401068 118.064564 
L 275.175055 113.117534 
L 283.949041 108.676468 
L 292.723028 107.205283 
L 301.497014 110.105008 
L 310.271001 116.054608 
L 319.044987 122.278387 
L 327.818974 126.736679 
L 336.59296 128.004993 
L 345.366947 125.504621 
L 354.140933 120.708146 
L 362.91492 115.430342 
L 371.688906 109.850336 
L 380.462893 104.582975 
L 389.236879 102.026474 
L 398.010866 103.813087 
L 406.784852 108.88764 
L 415.558839 114.504542 
L 424.332825 118.523641 
L 433.106812 119.49247 
L 441.880798 116.679845 
L 450.654785 111.375757 
L 459.428771 105.506318 
L 468.202758 99.383794 
L 476.976744 93.451629 
L 485.750731 90.012239 
L 494.524717 90.909769 
L 503.298704 95.366437 
L 512.07269 100.695018 
L 520.846677 104.652494 
L 529.620663 105.756375 
L 538.394649 103.140557 
L 547.168636 97.895251 
L 555.942622 92.027128 
L 564.716609 86.001436 
L 573.490595 80.109267 
L 582.264582 76.524507 
L 591.038568 77.275462 
L 599.812555 81.864311 
L 608.586541 87.685039 
L 617.360528 92.386464 
L 626.134514 94.445133 
L 634.908501 92.871666 
L 643.682487 88.5379 
L 652.456474 83.492075 
L 661.23046 78.362041 
L 670.004447 73.305181 
L 678.778433 70.33337 
L 687.55242 71.625321 
L 696.326406 76.96015 
" clip-path="url(#padf12c1fa4)" style="fill: none; stroke: #ff0000; stroke-width: 2; stroke-linecap: round"/>
   </g>
   <g id="line2d_17">
    <defs>
     <path id="mdc5764be54" d="M 0 3 
C 0.795609 3 1.55874 2.683901 2.12132 2.12132 
C 2.683901 1.55874 3 0.795609 3 0 
C 3 -0.795609 2.683901 -1.55874 2.12132 -2.12132 
C 1.55874 -2.683901 0.795609 -3 0 -3 
C -0.795609 -3 -1.55874 -2.683901 -2.12132 -2.12132 
C -2.683901 -1.55874 -3 -0.795609 -3 0 
C -3 0.795609 -2.683901 1.55874 -2.12132 2.12132 
C -1.55874 2.683901 -0.795609 3 0 3 
z
" style="stroke: #000000"/>
    </defs>
    <g clip-path="url(#padf12c1fa4)">
     <use xlink:href="#mdc5764be54" x="609.365038" y="86.616088" style="stroke: #000000"/>
     <use xlink:href="#mdc5764be54" x="76.410758" y="108.435084" style="stroke: #000000"/>
     <use xlink:href="#mdc5764be54" x="64.170824" y="110.221029" style="stroke: #000000"/>
     <use xlink:href="#mdc5764be54" x="291.479659" y="111.682479" style="stroke: #000000"/>
     <use xlink:href="#mdc5764be54" x="573.32342" y="77.272849" style="stroke: #000000"/>
     <use xlink:href="#mdc5764be54" x="688.065115" y="56.620739" style="stroke: #000000"/>
     <use xlink:href="#mdc5764be54" x="144.713333" y="128.677127" style="stroke: #000000"/>
     <use xlink:href="#mdc5764be54" x="432.805626" y="122.404477" style="stroke: #000000"/>
     <use xlink:href="#mdc5764be54" x="294.354317" y="109.385946" style="stroke: #000000"/>
     <use xlink:href="#mdc5764be54" x="676.792577" y="57.15682" style="stroke: #000000"/>
    </g>
   </g>
   <g id="patch_3">
    <path d="M 47.051406 175.68875 
L 47.051406 21.935625 
" style="fill: none; stroke: #ffffff; stroke-width: 0.8; stroke-linejoin: miter; stroke-linecap: square"/>
   </g>
   <g id="patch_4">
    <path d="M 696.326406 175.68875 
L 696.326406 21.935625 
" style="fill: none; stroke: #ffffff; stroke-width: 0.8; stroke-linejoin: miter; stroke-linecap: square"/>
   </g>
   <g id="patch_5">
    <path d="M 47.051406 175.68875 
L 696.326406 175.68875 
" style="fill: none; stroke: #ffffff; stroke-width: 0.8; stroke-linejoin: miter; stroke-linecap: square"/>
   </g>
   <g id="patch_6">
    <path d="M 47.051406 21.935625 
L 696.326406 21.935625 
" style="fill: none; stroke: #ffffff; stroke-width: 0.8; stroke-linejoin: miter; stroke-linecap: square"/>
   </g>
   <g id="text_17">
    <!-- Distribution of posterior and prior data -->
    <g style="fill: #262626" transform="translate(271.310781 15.935625)scale(0.12 -0.12)">
     <defs>
      <path id="ArialMT-44" d="M 494 0 
L 494 4581 
L 2072 4581 
Q 2606 4581 2888 4516 
Q 3281 4425 3559 4188 
Q 3922 3881 4101 3404 
Q 4281 2928 4281 2316 
Q 4281 1794 4159 1391 
Q 4038 988 3847 723 
Q 3656 459 3429 307 
Q 3203 156 2883 78 
Q 2563 0 2147 0 
L 494 0 
z
M 1100 541 
L 2078 541 
Q 2531 541 2789 625 
Q 3047 709 3200 863 
Q 3416 1078 3536 1442 
Q 3656 1806 3656 2325 
Q 3656 3044 3420 3430 
Q 3184 3816 2847 3947 
Q 2603 4041 2063 4041 
L 1100 4041 
L 1100 541 
z
" transform="scale(0.015625)"/>
      <path id="ArialMT-69" d="M 425 3934 
L 425 4581 
L 988 4581 
L 988 3934 
L 425 3934 
z
M 425 0 
L 425 3319 
L 988 3319 
L 988 0 
L 425 0 
z
" transform="scale(0.015625)"/>
      <path id="ArialMT-73" d="M 197 991 
L 753 1078 
Q 800 744 1014 566 
Q 1228 388 1613 388 
Q 2000 388 2187 545 
Q 2375 703 2375 916 
Q 2375 1106 2209 1216 
Q 2094 1291 1634 1406 
Q 1016 1563 777 1677 
Q 538 1791 414 1992 
Q 291 2194 291 2438 
Q 291 2659 392 2848 
Q 494 3038 669 3163 
Q 800 3259 1026 3326 
Q 1253 3394 1513 3394 
Q 1903 3394 2198 3281 
Q 2494 3169 2634 2976 
Q 2775 2784 2828 2463 
L 2278 2388 
Q 2241 2644 2061 2787 
Q 1881 2931 1553 2931 
Q 1166 2931 1000 2803 
Q 834 2675 834 2503 
Q 834 2394 903 2306 
Q 972 2216 1119 2156 
Q 1203 2125 1616 2013 
Q 2213 1853 2448 1751 
Q 2684 1650 2818 1456 
Q 2953 1263 2953 975 
Q 2953 694 2789 445 
Q 2625 197 2315 61 
Q 2006 -75 1616 -75 
Q 969 -75 630 194 
Q 291 463 197 991 
z
" transform="scale(0.015625)"/>
      <path id="ArialMT-74" d="M 1650 503 
L 1731 6 
Q 1494 -44 1306 -44 
Q 1000 -44 831 53 
Q 663 150 594 308 
Q 525 466 525 972 
L 525 2881 
L 113 2881 
L 113 3319 
L 525 3319 
L 525 4141 
L 1084 4478 
L 1084 3319 
L 1650 3319 
L 1650 2881 
L 1084 2881 
L 1084 941 
Q 1084 700 1114 631 
Q 1144 563 1211 522 
Q 1278 481 1403 481 
Q 1497 481 1650 503 
z
" transform="scale(0.015625)"/>
      <path id="ArialMT-72" d="M 416 0 
L 416 3319 
L 922 3319 
L 922 2816 
Q 1116 3169 1280 3281 
Q 1444 3394 1641 3394 
Q 1925 3394 2219 3213 
L 2025 2691 
Q 1819 2813 1613 2813 
Q 1428 2813 1281 2702 
Q 1134 2591 1072 2394 
Q 978 2094 978 1738 
L 978 0 
L 416 0 
z
" transform="scale(0.015625)"/>
      <path id="ArialMT-62" d="M 941 0 
L 419 0 
L 419 4581 
L 981 4581 
L 981 2947 
Q 1338 3394 1891 3394 
Q 2197 3394 2470 3270 
Q 2744 3147 2920 2923 
Q 3097 2700 3197 2384 
Q 3297 2069 3297 1709 
Q 3297 856 2875 390 
Q 2453 -75 1863 -75 
Q 1275 -75 941 416 
L 941 0 
z
M 934 1684 
Q 934 1088 1097 822 
Q 1363 388 1816 388 
Q 2184 388 2453 708 
Q 2722 1028 2722 1663 
Q 2722 2313 2464 2622 
Q 2206 2931 1841 2931 
Q 1472 2931 1203 2611 
Q 934 2291 934 1684 
z
" transform="scale(0.015625)"/>
      <path id="ArialMT-75" d="M 2597 0 
L 2597 488 
Q 2209 -75 1544 -75 
Q 1250 -75 995 37 
Q 741 150 617 320 
Q 494 491 444 738 
Q 409 903 409 1263 
L 409 3319 
L 972 3319 
L 972 1478 
Q 972 1038 1006 884 
Q 1059 663 1231 536 
Q 1403 409 1656 409 
Q 1909 409 2131 539 
Q 2353 669 2445 892 
Q 2538 1116 2538 1541 
L 2538 3319 
L 3100 3319 
L 3100 0 
L 2597 0 
z
" transform="scale(0.015625)"/>
      <path id="ArialMT-6f" d="M 213 1659 
Q 213 2581 725 3025 
Q 1153 3394 1769 3394 
Q 2453 3394 2887 2945 
Q 3322 2497 3322 1706 
Q 3322 1066 3130 698 
Q 2938 331 2570 128 
Q 2203 -75 1769 -75 
Q 1072 -75 642 372 
Q 213 819 213 1659 
z
M 791 1659 
Q 791 1022 1069 705 
Q 1347 388 1769 388 
Q 2188 388 2466 706 
Q 2744 1025 2744 1678 
Q 2744 2294 2464 2611 
Q 2184 2928 1769 2928 
Q 1347 2928 1069 2612 
Q 791 2297 791 1659 
z
" transform="scale(0.015625)"/>
      <path id="ArialMT-6e" d="M 422 0 
L 422 3319 
L 928 3319 
L 928 2847 
Q 1294 3394 1984 3394 
Q 2284 3394 2536 3286 
Q 2788 3178 2913 3003 
Q 3038 2828 3088 2588 
Q 3119 2431 3119 2041 
L 3119 0 
L 2556 0 
L 2556 2019 
Q 2556 2363 2490 2533 
Q 2425 2703 2258 2804 
Q 2091 2906 1866 2906 
Q 1506 2906 1245 2678 
Q 984 2450 984 1813 
L 984 0 
L 422 0 
z
" transform="scale(0.015625)"/>
      <path id="ArialMT-20" transform="scale(0.015625)"/>
      <path id="ArialMT-66" d="M 556 0 
L 556 2881 
L 59 2881 
L 59 3319 
L 556 3319 
L 556 3672 
Q 556 4006 616 4169 
Q 697 4388 901 4523 
Q 1106 4659 1475 4659 
Q 1713 4659 2000 4603 
L 1916 4113 
Q 1741 4144 1584 4144 
Q 1328 4144 1222 4034 
Q 1116 3925 1116 3625 
L 1116 3319 
L 1763 3319 
L 1763 2881 
L 1116 2881 
L 1116 0 
L 556 0 
z
" transform="scale(0.015625)"/>
      <path id="ArialMT-70" d="M 422 -1272 
L 422 3319 
L 934 3319 
L 934 2888 
Q 1116 3141 1344 3267 
Q 1572 3394 1897 3394 
Q 2322 3394 2647 3175 
Q 2972 2956 3137 2557 
Q 3303 2159 3303 1684 
Q 3303 1175 3120 767 
Q 2938 359 2589 142 
Q 2241 -75 1856 -75 
Q 1575 -75 1351 44 
Q 1128 163 984 344 
L 984 -1272 
L 422 -1272 
z
M 931 1641 
Q 931 1000 1190 694 
Q 1450 388 1819 388 
Q 2194 388 2461 705 
Q 2728 1022 2728 1688 
Q 2728 2322 2467 2637 
Q 2206 2953 1844 2953 
Q 1484 2953 1207 2617 
Q 931 2281 931 1641 
z
" transform="scale(0.015625)"/>
      <path id="ArialMT-65" d="M 2694 1069 
L 3275 997 
Q 3138 488 2766 206 
Q 2394 -75 1816 -75 
Q 1088 -75 661 373 
Q 234 822 234 1631 
Q 234 2469 665 2931 
Q 1097 3394 1784 3394 
Q 2450 3394 2872 2941 
Q 3294 2488 3294 1666 
Q 3294 1616 3291 1516 
L 816 1516 
Q 847 969 1125 678 
Q 1403 388 1819 388 
Q 2128 388 2347 550 
Q 2566 713 2694 1069 
z
M 847 1978 
L 2700 1978 
Q 2663 2397 2488 2606 
Q 2219 2931 1791 2931 
Q 1403 2931 1139 2672 
Q 875 2413 847 1978 
z
" transform="scale(0.015625)"/>
      <path id="ArialMT-61" d="M 2588 409 
Q 2275 144 1986 34 
Q 1697 -75 1366 -75 
Q 819 -75 525 192 
Q 231 459 231 875 
Q 231 1119 342 1320 
Q 453 1522 633 1644 
Q 813 1766 1038 1828 
Q 1203 1872 1538 1913 
Q 2219 1994 2541 2106 
Q 2544 2222 2544 2253 
Q 2544 2597 2384 2738 
Q 2169 2928 1744 2928 
Q 1347 2928 1158 2789 
Q 969 2650 878 2297 
L 328 2372 
Q 403 2725 575 2942 
Q 747 3159 1072 3276 
Q 1397 3394 1825 3394 
Q 2250 3394 2515 3294 
Q 2781 3194 2906 3042 
Q 3031 2891 3081 2659 
Q 3109 2516 3109 2141 
L 3109 1391 
Q 3109 606 3145 398 
Q 3181 191 3288 0 
L 2700 0 
Q 2613 175 2588 409 
z
M 2541 1666 
Q 2234 1541 1622 1453 
Q 1275 1403 1131 1340 
Q 988 1278 909 1158 
Q 831 1038 831 891 
Q 831 666 1001 516 
Q 1172 366 1500 366 
Q 1825 366 2078 508 
Q 2331 650 2450 897 
Q 2541 1088 2541 1459 
L 2541 1666 
z
" transform="scale(0.015625)"/>
      <path id="ArialMT-64" d="M 2575 0 
L 2575 419 
Q 2259 -75 1647 -75 
Q 1250 -75 917 144 
Q 584 363 401 755 
Q 219 1147 219 1656 
Q 219 2153 384 2558 
Q 550 2963 881 3178 
Q 1213 3394 1622 3394 
Q 1922 3394 2156 3267 
Q 2391 3141 2538 2938 
L 2538 4581 
L 3097 4581 
L 3097 0 
L 2575 0 
z
M 797 1656 
Q 797 1019 1065 703 
Q 1334 388 1700 388 
Q 2069 388 2326 689 
Q 2584 991 2584 1609 
Q 2584 2291 2321 2609 
Q 2059 2928 1675 2928 
Q 1300 2928 1048 2622 
Q 797 2316 797 1656 
z
" transform="scale(0.015625)"/>
     </defs>
     <use xlink:href="#ArialMT-44"/>
     <use xlink:href="#ArialMT-69" x="72.216797"/>
     <use xlink:href="#ArialMT-73" x="94.433594"/>
     <use xlink:href="#ArialMT-74" x="144.433594"/>
     <use xlink:href="#ArialMT-72" x="172.216797"/>
     <use xlink:href="#ArialMT-69" x="205.517578"/>
     <use xlink:href="#ArialMT-62" x="227.734375"/>
     <use xlink:href="#ArialMT-75" x="283.349609"/>
     <use xlink:href="#ArialMT-74" x="338.964844"/>
     <use xlink:href="#ArialMT-69" x="366.748047"/>
     <use xlink:href="#ArialMT-6f" x="388.964844"/>
     <use xlink:href="#ArialMT-6e" x="444.580078"/>
     <use xlink:href="#ArialMT-20" x="500.195312"/>
     <use xlink:href="#ArialMT-6f" x="527.978516"/>
     <use xlink:href="#ArialMT-66" x="583.59375"/>
     <use xlink:href="#ArialMT-20" x="611.376953"/>
     <use xlink:href="#ArialMT-70" x="639.160156"/>
     <use xlink:href="#ArialMT-6f" x="694.775391"/>
     <use xlink:href="#ArialMT-73" x="750.390625"/>
     <use xlink:href="#ArialMT-74" x="800.390625"/>
     <use xlink:href="#ArialMT-65" x="828.173828"/>
     <use xlink:href="#ArialMT-72" x="883.789062"/>
     <use xlink:href="#ArialMT-69" x="917.089844"/>
     <use xlink:href="#ArialMT-6f" x="939.306641"/>
     <use xlink:href="#ArialMT-72" x="994.921875"/>
     <use xlink:href="#ArialMT-20" x="1028.222656"/>
     <use xlink:href="#ArialMT-61" x="1056.005859"/>
     <use xlink:href="#ArialMT-6e" x="1111.621094"/>
     <use xlink:href="#ArialMT-64" x="1167.236328"/>
     <use xlink:href="#ArialMT-20" x="1222.851562"/>
     <use xlink:href="#ArialMT-70" x="1250.634766"/>
     <use xlink:href="#ArialMT-72" x="1306.25"/>
     <use xlink:href="#ArialMT-69" x="1339.550781"/>
     <use xlink:href="#ArialMT-6f" x="1361.767578"/>
     <use xlink:href="#ArialMT-72" x="1417.382812"/>
     <use xlink:href="#ArialMT-20" x="1450.683594"/>
     <use xlink:href="#ArialMT-64" x="1478.466797"/>
     <use xlink:href="#ArialMT-61" x="1534.082031"/>
     <use xlink:href="#ArialMT-74" x="1589.697266"/>
     <use xlink:href="#ArialMT-61" x="1617.480469"/>
    </g>
   </g>
   <g id="legend_1">
    <g id="patch_7">
     <path d="M 54.051406 90.03875 
L 120.351406 90.03875 
Q 122.351406 90.03875 122.351406 88.03875 
L 122.351406 28.935625 
Q 122.351406 26.935625 120.351406 26.935625 
L 54.051406 26.935625 
Q 52.051406 26.935625 52.051406 28.935625 
L 52.051406 88.03875 
Q 52.051406 90.03875 54.051406 90.03875 
z
" style="fill: #eaeaf2; opacity: 0.8; stroke: #cccccc; stroke-linejoin: miter"/>
    </g>
    <g id="line2d_18">
     <path d="M 56.051406 34.593437 
L 66.051406 34.593437 
L 76.051406 34.593437 
" style="fill: none; stroke-dasharray: 5.55,2.4; stroke-dashoffset: 0; stroke: #0000ff; stroke-width: 1.5"/>
    </g>
    <g id="text_18">
     <!-- $sin(x)$ -->
     <g style="fill: #262626" transform="translate(84.051406 38.093437)scale(0.1 -0.1)">
      <defs>
       <path id="DejaVuSans-Oblique-73" d="M 3200 3397 
L 3091 2853 
Q 2863 2978 2609 3040 
Q 2356 3103 2088 3103 
Q 1634 3103 1373 2948 
Q 1113 2794 1113 2528 
Q 1113 2219 1719 2053 
Q 1766 2041 1788 2034 
L 1972 1978 
Q 2547 1819 2739 1644 
Q 2931 1469 2931 1166 
Q 2931 609 2489 259 
Q 2047 -91 1331 -91 
Q 1053 -91 747 -37 
Q 441 16 72 128 
L 184 722 
Q 500 559 806 475 
Q 1113 391 1394 391 
Q 1816 391 2080 572 
Q 2344 753 2344 1031 
Q 2344 1331 1650 1516 
L 1591 1531 
L 1394 1581 
Q 956 1697 753 1886 
Q 550 2075 550 2369 
Q 550 2928 970 3256 
Q 1391 3584 2113 3584 
Q 2397 3584 2667 3537 
Q 2938 3491 3200 3397 
z
" transform="scale(0.015625)"/>
       <path id="DejaVuSans-Oblique-69" d="M 1172 4863 
L 1747 4863 
L 1606 4134 
L 1031 4134 
L 1172 4863 
z
M 909 3500 
L 1484 3500 
L 800 0 
L 225 0 
L 909 3500 
z
" transform="scale(0.015625)"/>
       <path id="DejaVuSans-Oblique-6e" d="M 3566 2113 
L 3156 0 
L 2578 0 
L 2988 2091 
Q 3016 2238 3031 2350 
Q 3047 2463 3047 2528 
Q 3047 2791 2881 2937 
Q 2716 3084 2419 3084 
Q 1956 3084 1622 2776 
Q 1288 2469 1184 1941 
L 800 0 
L 225 0 
L 903 3500 
L 1478 3500 
L 1363 2950 
Q 1603 3253 1940 3418 
Q 2278 3584 2650 3584 
Q 3113 3584 3367 3334 
Q 3622 3084 3622 2631 
Q 3622 2519 3608 2391 
Q 3594 2263 3566 2113 
z
" transform="scale(0.015625)"/>
       <path id="DejaVuSans-28" d="M 1984 4856 
Q 1566 4138 1362 3434 
Q 1159 2731 1159 2009 
Q 1159 1288 1364 580 
Q 1569 -128 1984 -844 
L 1484 -844 
Q 1016 -109 783 600 
Q 550 1309 550 2009 
Q 550 2706 781 3412 
Q 1013 4119 1484 4856 
L 1984 4856 
z
" transform="scale(0.015625)"/>
       <path id="DejaVuSans-29" d="M 513 4856 
L 1013 4856 
Q 1481 4119 1714 3412 
Q 1947 2706 1947 2009 
Q 1947 1309 1714 600 
Q 1481 -109 1013 -844 
L 513 -844 
Q 928 -128 1133 580 
Q 1338 1288 1338 2009 
Q 1338 2731 1133 3434 
Q 928 4138 513 4856 
z
" transform="scale(0.015625)"/>
      </defs>
      <use xlink:href="#DejaVuSans-Oblique-73" transform="translate(0 0.015625)"/>
      <use xlink:href="#DejaVuSans-Oblique-69" transform="translate(52.099609 0.015625)"/>
      <use xlink:href="#DejaVuSans-Oblique-6e" transform="translate(79.882812 0.015625)"/>
      <use xlink:href="#DejaVuSans-28" transform="translate(143.261719 0.015625)"/>
      <use xlink:href="#DejaVuSans-Oblique-78" transform="translate(182.275391 0.015625)"/>
      <use xlink:href="#DejaVuSans-29" transform="translate(241.455078 0.015625)"/>
     </g>
    </g>
    <g id="patch_8">
     <path d="M 56.051406 52.580938 
L 76.051406 52.580938 
L 76.051406 45.580938 
L 56.051406 45.580938 
z
" style="fill: #ff0000; fill-opacity: 0.15; stroke: #ff0000; stroke-opacity: 0.15; stroke-linejoin: miter"/>
    </g>
    <g id="text_19">
     <!-- $2\sigma_{2|1}$ -->
     <g style="fill: #262626" transform="translate(84.051406 52.580938)scale(0.1 -0.1)">
      <defs>
       <path id="DejaVuSans-32" d="M 1228 531 
L 3431 531 
L 3431 0 
L 469 0 
L 469 531 
Q 828 903 1448 1529 
Q 2069 2156 2228 2338 
Q 2531 2678 2651 2914 
Q 2772 3150 2772 3378 
Q 2772 3750 2511 3984 
Q 2250 4219 1831 4219 
Q 1534 4219 1204 4116 
Q 875 4013 500 3803 
L 500 4441 
Q 881 4594 1212 4672 
Q 1544 4750 1819 4750 
Q 2544 4750 2975 4387 
Q 3406 4025 3406 3419 
Q 3406 3131 3298 2873 
Q 3191 2616 2906 2266 
Q 2828 2175 2409 1742 
Q 1991 1309 1228 531 
z
" transform="scale(0.015625)"/>
       <path id="DejaVuSans-Oblique-3c3" d="M 2219 3044 
Q 1744 3044 1422 2700 
Q 1081 2341 969 1747 
Q 844 1119 1044 756 
Q 1241 397 1706 397 
Q 2166 397 2503 759 
Q 2844 1122 2966 1747 
Q 3075 2319 2881 2700 
Q 2700 3044 2219 3044 
z
M 2309 3503 
L 4219 3500 
L 4106 2925 
L 3463 2925 
Q 3706 2438 3575 1747 
Q 3406 888 2884 400 
Q 2359 -91 1609 -91 
Q 856 -91 525 400 
Q 194 888 363 1747 
Q 528 2609 1050 3097 
Q 1484 3503 2309 3503 
z
" transform="scale(0.015625)"/>
       <path id="DejaVuSans-7c" d="M 1344 4891 
L 1344 -1509 
L 813 -1509 
L 813 4891 
L 1344 4891 
z
" transform="scale(0.015625)"/>
       <path id="DejaVuSans-31" d="M 794 531 
L 1825 531 
L 1825 4091 
L 703 3866 
L 703 4441 
L 1819 4666 
L 2450 4666 
L 2450 531 
L 3481 531 
L 3481 0 
L 794 0 
L 794 531 
z
" transform="scale(0.015625)"/>
      </defs>
      <use xlink:href="#DejaVuSans-32" transform="translate(0 0.78125)"/>
      <use xlink:href="#DejaVuSans-Oblique-3c3" transform="translate(63.623047 0.78125)"/>
      <use xlink:href="#DejaVuSans-32" transform="translate(127.001953 -15.625)scale(0.7)"/>
      <use xlink:href="#DejaVuSans-7c" transform="translate(171.538086 -15.625)scale(0.7)"/>
      <use xlink:href="#DejaVuSans-31" transform="translate(195.12207 -15.625)scale(0.7)"/>
     </g>
    </g>
    <g id="line2d_19">
     <path d="M 56.051406 64.53875 
L 66.051406 64.53875 
L 76.051406 64.53875 
" style="fill: none; stroke: #ff0000; stroke-width: 2; stroke-linecap: round"/>
    </g>
    <g id="text_20">
     <!-- $\mu_{2|1}$ -->
     <g style="fill: #262626" transform="translate(84.051406 68.03875)scale(0.1 -0.1)">
      <defs>
       <path id="DejaVuSans-Oblique-3bc" d="M -84 -1331 
L 856 3500 
L 1434 3500 
L 1009 1322 
Q 997 1256 987 1175 
Q 978 1094 978 1013 
Q 978 722 1161 565 
Q 1344 409 1684 409 
Q 2147 409 2431 671 
Q 2716 934 2816 1459 
L 3213 3500 
L 3788 3500 
L 3266 809 
Q 3253 750 3248 706 
Q 3244 663 3244 628 
Q 3244 531 3283 486 
Q 3322 441 3406 441 
Q 3438 441 3492 456 
Q 3547 472 3647 513 
L 3559 50 
Q 3422 -19 3297 -55 
Q 3172 -91 3053 -91 
Q 2847 -91 2730 40 
Q 2613 172 2613 403 
Q 2438 153 2195 31 
Q 1953 -91 1625 -91 
Q 1334 -91 1117 43 
Q 900 178 831 397 
L 494 -1331 
L -84 -1331 
z
" transform="scale(0.015625)"/>
      </defs>
      <use xlink:href="#DejaVuSans-Oblique-3bc" transform="translate(0 0.3125)"/>
      <use xlink:href="#DejaVuSans-32" transform="translate(63.623047 -16.09375)scale(0.7)"/>
      <use xlink:href="#DejaVuSans-7c" transform="translate(108.15918 -16.09375)scale(0.7)"/>
      <use xlink:href="#DejaVuSans-31" transform="translate(131.743164 -16.09375)scale(0.7)"/>
     </g>
    </g>
    <g id="line2d_20">
     <g>
      <use xlink:href="#mdc5764be54" x="66.051406" y="80.43875" style="stroke: #000000"/>
     </g>
    </g>
    <g id="text_21">
     <!-- $(x_1, y_1)$ -->
     <g style="fill: #262626" transform="translate(84.051406 83.93875)scale(0.1 -0.1)">
      <defs>
       <path id="DejaVuSans-2c" d="M 750 794 
L 1409 794 
L 1409 256 
L 897 -744 
L 494 -744 
L 750 256 
L 750 794 
z
" transform="scale(0.015625)"/>
      </defs>
      <use xlink:href="#DejaVuSans-28" transform="translate(0 0.125)"/>
      <use xlink:href="#DejaVuSans-Oblique-78" transform="translate(39.013672 0.125)"/>
      <use xlink:href="#DejaVuSans-31" transform="translate(98.193359 -16.28125)scale(0.7)"/>
      <use xlink:href="#DejaVuSans-2c" transform="translate(145.463867 0.125)"/>
      <use xlink:href="#DejaVuSans-Oblique-79" transform="translate(196.733398 0.125)"/>
      <use xlink:href="#DejaVuSans-31" transform="translate(255.913086 -16.28125)scale(0.7)"/>
      <use xlink:href="#DejaVuSans-29" transform="translate(303.183594 0.125)"/>
     </g>
    </g>
   </g>
  </g>
  <g id="axes_2">
   <g id="patch_9">
    <path d="M 47.051406 386.28875 
L 696.326406 386.28875 
L 696.326406 232.535625 
L 47.051406 232.535625 
z
" style="fill: #eaeaf2"/>
   </g>
   <g id="matplotlib.axis_3">
    <g id="xtick_10">
     <g id="line2d_21">
      <path d="M 47.051406 386.28875 
L 47.051406 232.535625 
" clip-path="url(#p56bc05d8a0)" style="fill: none; stroke: #ffffff; stroke-width: 0.8; stroke-linecap: round"/>
     </g>
     <g id="text_22">
      <!-- 0.0 -->
      <g style="fill: #262626" transform="translate(40.101406 400.446562)scale(0.1 -0.1)">
       <use xlink:href="#ArialMT-30"/>
       <use xlink:href="#ArialMT-2e" x="55.615234"/>
       <use xlink:href="#ArialMT-30" x="83.398438"/>
      </g>
     </g>
    </g>
    <g id="xtick_11">
     <g id="line2d_22">
      <path d="M 128.210781 386.28875 
L 128.210781 232.535625 
" clip-path="url(#p56bc05d8a0)" style="fill: none; stroke: #ffffff; stroke-width: 0.8; stroke-linecap: round"/>
     </g>
     <g id="text_23">
      <!-- 0.5 -->
      <g style="fill: #262626" transform="translate(121.260781 400.446562)scale(0.1 -0.1)">
       <use xlink:href="#ArialMT-30"/>
       <use xlink:href="#ArialMT-2e" x="55.615234"/>
       <use xlink:href="#ArialMT-35" x="83.398438"/>
      </g>
     </g>
    </g>
    <g id="xtick_12">
     <g id="line2d_23">
      <path d="M 209.370156 386.28875 
L 209.370156 232.535625 
" clip-path="url(#p56bc05d8a0)" style="fill: none; stroke: #ffffff; stroke-width: 0.8; stroke-linecap: round"/>
     </g>
     <g id="text_24">
      <!-- 1.0 -->
      <g style="fill: #262626" transform="translate(202.420156 400.446562)scale(0.1 -0.1)">
       <use xlink:href="#ArialMT-31"/>
       <use xlink:href="#ArialMT-2e" x="55.615234"/>
       <use xlink:href="#ArialMT-30" x="83.398438"/>
      </g>
     </g>
    </g>
    <g id="xtick_13">
     <g id="line2d_24">
      <path d="M 290.529531 386.28875 
L 290.529531 232.535625 
" clip-path="url(#p56bc05d8a0)" style="fill: none; stroke: #ffffff; stroke-width: 0.8; stroke-linecap: round"/>
     </g>
     <g id="text_25">
      <!-- 1.5 -->
      <g style="fill: #262626" transform="translate(283.579531 400.446562)scale(0.1 -0.1)">
       <use xlink:href="#ArialMT-31"/>
       <use xlink:href="#ArialMT-2e" x="55.615234"/>
       <use xlink:href="#ArialMT-35" x="83.398438"/>
      </g>
     </g>
    </g>
    <g id="xtick_14">
     <g id="line2d_25">
      <path d="M 371.688906 386.28875 
L 371.688906 232.535625 
" clip-path="url(#p56bc05d8a0)" style="fill: none; stroke: #ffffff; stroke-width: 0.8; stroke-linecap: round"/>
     </g>
     <g id="text_26">
      <!-- 2.0 -->
      <g style="fill: #262626" transform="translate(364.738906 400.446562)scale(0.1 -0.1)">
       <use xlink:href="#ArialMT-32"/>
       <use xlink:href="#ArialMT-2e" x="55.615234"/>
       <use xlink:href="#ArialMT-30" x="83.398438"/>
      </g>
     </g>
    </g>
    <g id="xtick_15">
     <g id="line2d_26">
      <path d="M 452.848281 386.28875 
L 452.848281 232.535625 
" clip-path="url(#p56bc05d8a0)" style="fill: none; stroke: #ffffff; stroke-width: 0.8; stroke-linecap: round"/>
     </g>
     <g id="text_27">
      <!-- 2.5 -->
      <g style="fill: #262626" transform="translate(445.898281 400.446562)scale(0.1 -0.1)">
       <use xlink:href="#ArialMT-32"/>
       <use xlink:href="#ArialMT-2e" x="55.615234"/>
       <use xlink:href="#ArialMT-35" x="83.398438"/>
      </g>
     </g>
    </g>
    <g id="xtick_16">
     <g id="line2d_27">
      <path d="M 534.007656 386.28875 
L 534.007656 232.535625 
" clip-path="url(#p56bc05d8a0)" style="fill: none; stroke: #ffffff; stroke-width: 0.8; stroke-linecap: round"/>
     </g>
     <g id="text_28">
      <!-- 3.0 -->
      <g style="fill: #262626" transform="translate(527.057656 400.446562)scale(0.1 -0.1)">
       <use xlink:href="#ArialMT-33"/>
       <use xlink:href="#ArialMT-2e" x="55.615234"/>
       <use xlink:href="#ArialMT-30" x="83.398438"/>
      </g>
     </g>
    </g>
    <g id="xtick_17">
     <g id="line2d_28">
      <path d="M 615.167031 386.28875 
L 615.167031 232.535625 
" clip-path="url(#p56bc05d8a0)" style="fill: none; stroke: #ffffff; stroke-width: 0.8; stroke-linecap: round"/>
     </g>
     <g id="text_29">
      <!-- 3.5 -->
      <g style="fill: #262626" transform="translate(608.217031 400.446562)scale(0.1 -0.1)">
       <use xlink:href="#ArialMT-33"/>
       <use xlink:href="#ArialMT-2e" x="55.615234"/>
       <use xlink:href="#ArialMT-35" x="83.398438"/>
      </g>
     </g>
    </g>
    <g id="xtick_18">
     <g id="line2d_29">
      <path d="M 696.326406 386.28875 
L 696.326406 232.535625 
" clip-path="url(#p56bc05d8a0)" style="fill: none; stroke: #ffffff; stroke-width: 0.8; stroke-linecap: round"/>
     </g>
     <g id="text_30">
      <!-- 4.0 -->
      <g style="fill: #262626" transform="translate(689.376406 400.446562)scale(0.1 -0.1)">
       <use xlink:href="#ArialMT-34"/>
       <use xlink:href="#ArialMT-2e" x="55.615234"/>
       <use xlink:href="#ArialMT-30" x="83.398438"/>
      </g>
     </g>
    </g>
    <g id="text_31">
     <!-- $x$ -->
     <g style="fill: #262626" transform="translate(367.788906 415.739219)scale(0.13 -0.13)">
      <use xlink:href="#DejaVuSans-Oblique-78" transform="translate(0 0.3125)"/>
     </g>
    </g>
   </g>
   <g id="matplotlib.axis_4">
    <g id="ytick_6">
     <g id="line2d_30">
      <path d="M 47.051406 369.63718 
L 696.326406 369.63718 
" clip-path="url(#p56bc05d8a0)" style="fill: none; stroke: #ffffff; stroke-width: 0.8; stroke-linecap: round"/>
     </g>
     <g id="text_32">
      <!-- −20 -->
      <g style="fill: #262626" transform="translate(23.088906 373.216087)scale(0.1 -0.1)">
       <use xlink:href="#ArialMT-2212"/>
       <use xlink:href="#ArialMT-32" x="58.398438"/>
       <use xlink:href="#ArialMT-30" x="114.013672"/>
      </g>
     </g>
    </g>
    <g id="ytick_7">
     <g id="line2d_31">
      <path d="M 47.051406 335.968998 
L 696.326406 335.968998 
" clip-path="url(#p56bc05d8a0)" style="fill: none; stroke: #ffffff; stroke-width: 0.8; stroke-linecap: round"/>
     </g>
     <g id="text_33">
      <!-- 0 -->
      <g style="fill: #262626" transform="translate(34.490469 339.547904)scale(0.1 -0.1)">
       <use xlink:href="#ArialMT-30"/>
      </g>
     </g>
    </g>
    <g id="ytick_8">
     <g id="line2d_32">
      <path d="M 47.051406 302.300815 
L 696.326406 302.300815 
" clip-path="url(#p56bc05d8a0)" style="fill: none; stroke: #ffffff; stroke-width: 0.8; stroke-linecap: round"/>
     </g>
     <g id="text_34">
      <!-- 20 -->
      <g style="fill: #262626" transform="translate(28.929531 305.879721)scale(0.1 -0.1)">
       <use xlink:href="#ArialMT-32"/>
       <use xlink:href="#ArialMT-30" x="55.615234"/>
      </g>
     </g>
    </g>
    <g id="ytick_9">
     <g id="line2d_33">
      <path d="M 47.051406 268.632633 
L 696.326406 268.632633 
" clip-path="url(#p56bc05d8a0)" style="fill: none; stroke: #ffffff; stroke-width: 0.8; stroke-linecap: round"/>
     </g>
     <g id="text_35">
      <!-- 40 -->
      <g style="fill: #262626" transform="translate(28.929531 272.211539)scale(0.1 -0.1)">
       <use xlink:href="#ArialMT-34"/>
       <use xlink:href="#ArialMT-30" x="55.615234"/>
      </g>
     </g>
    </g>
    <g id="ytick_10">
     <g id="line2d_34">
      <path d="M 47.051406 234.96445 
L 696.326406 234.96445 
" clip-path="url(#p56bc05d8a0)" style="fill: none; stroke: #ffffff; stroke-width: 0.8; stroke-linecap: round"/>
     </g>
     <g id="text_36">
      <!-- 60 -->
      <g style="fill: #262626" transform="translate(28.929531 238.543356)scale(0.1 -0.1)">
       <use xlink:href="#ArialMT-36"/>
       <use xlink:href="#ArialMT-30" x="55.615234"/>
      </g>
     </g>
    </g>
    <g id="text_37">
     <!-- $y$ -->
     <g style="fill: #262626" transform="translate(16.358906 313.312187)rotate(-90)scale(0.13 -0.13)">
      <use xlink:href="#DejaVuSans-Oblique-79" transform="translate(0 0.3125)"/>
     </g>
    </g>
   </g>
   <g id="line2d_35">
    <path d="M 47.051406 330.277106 
L 55.825393 328.803333 
L 64.599379 325.751373 
L 73.373366 321.126995 
L 82.147352 315.727261 
L 90.921339 312.049801 
L 99.695325 312.842446 
L 108.469312 317.362934 
L 117.243298 323.899232 
L 126.017285 329.966294 
L 134.791271 332.841015 
L 143.565258 333.137488 
L 152.339244 331.937117 
L 161.113231 329.174982 
L 169.887217 324.801969 
L 178.661204 319.493423 
L 187.43519 315.569322 
L 196.209177 315.941033 
L 204.983163 320.217721 
L 213.757149 326.636204 
L 222.531136 332.891605 
L 231.305122 336.060434 
L 240.079109 336.461304 
L 248.853095 335.285174 
L 257.627082 332.538203 
L 266.401068 328.121682 
L 275.175055 322.603129 
L 283.949041 318.11809 
L 292.723028 317.691427 
L 301.497014 321.316813 
L 310.271001 327.188229 
L 319.044987 333.175322 
L 327.818974 336.211906 
L 336.59296 336.288338 
L 345.366947 334.688812 
L 354.140933 331.508206 
L 362.91492 326.60847 
L 371.688906 320.465478 
L 380.462893 315.031069 
L 389.236879 313.398681 
L 398.010866 315.970504 
L 406.784852 320.921511 
L 415.558839 326.283552 
L 424.332825 328.909572 
L 433.106812 328.439663 
L 441.880798 326.229668 
L 450.654785 322.480793 
L 459.428771 317.027993 
L 468.202758 310.26967 
L 476.976744 303.977237 
L 485.750731 301.268829 
L 494.524717 302.963058 
L 503.298704 307.247739 
L 512.07269 312.291826 
L 520.846677 314.9228 
L 529.620663 314.411885 
L 538.394649 312.150677 
L 547.168636 308.454711 
L 555.942622 303.137184 
L 564.716609 296.521916 
L 573.490595 290.196797 
L 582.264582 287.254916 
L 591.038568 288.916129 
L 599.812555 293.413622 
L 608.586541 299.013184 
L 617.360528 302.560503 
L 626.134514 302.942248 
L 634.908501 301.536401 
L 643.682487 298.773052 
L 652.456474 294.445681 
L 661.23046 288.80099 
L 670.004447 283.241167 
L 678.778433 280.788641 
L 687.55242 283.037965 
L 696.326406 288.310854 
" clip-path="url(#p56bc05d8a0)" style="fill: none; stroke: #1f77b4; stroke-width: 1.5; stroke-linecap: round"/>
   </g>
   <g id="line2d_36">
    <path d="M 47.051406 332.024982 
L 55.825393 330.040041 
L 64.599379 326.634739 
L 73.373366 323.730747 
L 82.147352 319.655782 
L 90.921339 314.841275 
L 99.695325 313.20893 
L 108.469312 316.802085 
L 117.243298 323.637554 
L 126.017285 329.865363 
L 134.791271 334.212807 
L 143.565258 336.177218 
L 152.339244 334.565965 
L 161.113231 331.242445 
L 169.887217 328.358545 
L 178.661204 324.492607 
L 187.43519 319.581088 
L 196.209177 317.436035 
L 204.983163 320.469356 
L 213.757149 327.05119 
L 222.531136 333.334632 
L 231.305122 337.678354 
L 240.079109 339.769419 
L 248.853095 338.228488 
L 257.627082 334.671135 
L 266.401068 331.427879 
L 275.175055 327.397558 
L 283.949041 322.051144 
L 292.723028 319.02972 
L 301.497014 321.088227 
L 310.271001 326.973631 
L 319.044987 332.894983 
L 327.818974 336.836276 
L 336.59296 338.636356 
L 345.366947 336.795806 
L 354.140933 332.652449 
L 362.91492 328.665779 
L 371.688906 324.110326 
L 380.462893 318.039056 
L 389.236879 313.862758 
L 398.010866 314.650179 
L 406.784852 319.547383 
L 415.558839 324.869927 
L 424.332825 328.238509 
L 433.106812 329.593348 
L 441.880798 327.387145 
L 450.654785 322.655163 
L 459.428771 317.938886 
L 468.202758 312.925989 
L 476.976744 306.313816 
L 485.750731 301.223936 
L 494.524717 301.002119 
L 503.298704 305.208776 
L 512.07269 310.308002 
L 520.846677 313.57784 
L 529.620663 314.992852 
L 538.394649 313.023535 
L 547.168636 308.376518 
L 555.942622 303.62336 
L 564.716609 298.876018 
L 573.490595 292.544194 
L 582.264582 287.396888 
L 591.038568 287.007167 
L 599.812555 291.352985 
L 608.586541 297.077681 
L 617.360528 301.142961 
L 626.134514 303.478196 
L 634.908501 302.628128 
L 643.682487 298.94856 
L 652.456474 294.988815 
L 661.23046 291.276336 
L 670.004447 286.011019 
L 678.778433 281.551516 
L 687.55242 281.644603 
L 696.326406 286.685697 
" clip-path="url(#p56bc05d8a0)" style="fill: none; stroke: #ff7f0e; stroke-width: 1.5; stroke-linecap: round"/>
   </g>
   <g id="line2d_37">
    <path d="M 47.051406 332.55484 
L 55.825393 329.979076 
L 64.599379 326.503533 
L 73.373366 322.506643 
L 82.147352 317.734977 
L 90.921339 313.656833 
L 99.695325 313.050791 
L 108.469312 317.196819 
L 117.243298 324.521739 
L 126.017285 332.104479 
L 134.791271 336.77789 
L 143.565258 337.207037 
L 152.339244 334.849971 
L 161.113231 331.398384 
L 169.887217 327.459877 
L 178.661204 322.650213 
L 187.43519 318.29753 
L 196.209177 317.092236 
L 204.983163 320.642475 
L 213.757149 327.574618 
L 222.531136 335.053661 
L 231.305122 339.891274 
L 240.079109 340.416875 
L 248.853095 337.962544 
L 257.627082 334.216243 
L 266.401068 330.008368 
L 275.175055 324.861252 
L 283.949041 319.954327 
L 292.723028 317.863897 
L 301.497014 320.502535 
L 310.271001 326.713931 
L 319.044987 333.761289 
L 327.818974 338.448267 
L 336.59296 338.795396 
L 345.366947 335.968074 
L 354.140933 331.64922 
L 362.91492 326.877182 
L 371.688906 321.12738 
L 380.462893 315.422646 
L 389.236879 312.211495 
L 398.010866 313.682476 
L 406.784852 318.922098 
L 415.558839 325.308627 
L 424.332825 329.653367 
L 433.106812 329.70672 
L 441.880798 326.429899 
L 450.654785 321.506756 
L 459.428771 316.164492 
L 468.202758 309.885237 
L 476.976744 303.527619 
L 485.750731 299.40649 
L 494.524717 299.948823 
L 503.298704 304.508889 
L 512.07269 310.592227 
L 520.846677 315.026685 
L 529.620663 315.329401 
L 538.394649 312.213428 
L 547.168636 307.361823 
L 555.942622 302.156849 
L 564.716609 296.132504 
L 573.490595 289.965587 
L 582.264582 285.826567 
L 591.038568 286.325981 
L 599.812555 291.100249 
L 608.586541 297.782746 
L 617.360528 303.216059 
L 626.134514 304.713465 
L 634.908501 302.691189 
L 643.682487 298.820889 
L 652.456474 294.597515 
L 661.23046 289.64598 
L 670.004447 284.443198 
L 678.778433 281.007297 
L 687.55242 282.07376 
L 696.326406 287.575986 
" clip-path="url(#p56bc05d8a0)" style="fill: none; stroke: #2ca02c; stroke-width: 1.5; stroke-linecap: round"/>
   </g>
   <g id="line2d_38">
    <path d="M 47.051406 333.247204 
L 55.825393 331.5391 
L 64.599379 327.287354 
L 73.373366 322.646525 
L 82.147352 318.287025 
L 90.921339 313.764039 
L 99.695325 312.61444 
L 108.469312 317.27435 
L 117.243298 325.525863 
L 126.017285 332.852066 
L 134.791271 336.838694 
L 143.565258 337.959806 
L 152.339244 336.672912 
L 161.113231 332.730241 
L 169.887217 328.085986 
L 178.661204 323.780985 
L 187.43519 319.115905 
L 196.209177 317.359668 
L 204.983163 321.297424 
L 213.757149 329.195804 
L 222.531136 336.502661 
L 231.305122 340.519674 
L 240.079109 341.506314 
L 248.853095 340.05714 
L 257.627082 335.869468 
L 266.401068 330.66325 
L 275.175055 325.83799 
L 283.949041 320.531751 
L 292.723028 317.684446 
L 301.497014 320.398301 
L 310.271001 327.443953 
L 319.044987 334.294898 
L 327.818974 337.983 
L 336.59296 338.522637 
L 345.366947 336.633784 
L 354.140933 331.999007 
L 362.91492 326.077387 
L 371.688906 320.591268 
L 380.462893 314.606439 
L 389.236879 310.675038 
L 398.010866 312.171296 
L 406.784852 318.372818 
L 415.558839 324.837236 
L 424.332825 328.334948 
L 433.106812 328.605463 
L 441.880798 326.470302 
L 450.654785 321.630739 
L 459.428771 315.269229 
L 468.202758 309.378606 
L 476.976744 303.043465 
L 485.750731 298.383097 
L 494.524717 298.994025 
L 503.298704 304.658332 
L 512.07269 311.082264 
L 520.846677 314.788073 
L 529.620663 315.221751 
L 538.394649 313.27958 
L 547.168636 308.715301 
L 555.942622 302.435664 
L 564.716609 296.642808 
L 573.490595 290.530045 
L 582.264582 285.755689 
L 591.038568 286.082144 
L 599.812555 291.785652 
L 608.586541 298.783674 
L 617.360528 303.362362 
L 626.134514 304.65802 
L 634.908501 303.603001 
L 643.682487 300.026665 
L 652.456474 294.565877 
L 661.23046 289.555395 
L 670.004447 284.371982 
L 678.778433 280.1952 
L 687.55242 280.883036 
L 696.326406 287.183613 
" clip-path="url(#p56bc05d8a0)" style="fill: none; stroke: #d62728; stroke-width: 1.5; stroke-linecap: round"/>
   </g>
   <g id="line2d_39">
    <path d="M 47.051406 335.95637 
L 55.825393 333.25869 
L 64.599379 327.876723 
L 73.373366 322.582443 
L 82.147352 317.162166 
L 90.921339 314.072753 
L 99.695325 315.565744 
L 108.469312 319.874848 
L 117.243298 325.803692 
L 126.017285 331.752848 
L 134.791271 336.042614 
L 143.565258 337.9235 
L 152.339244 335.718818 
L 161.113231 330.487893 
L 169.887217 325.215426 
L 178.661204 319.8126 
L 187.43519 316.321917 
L 196.209177 317.430206 
L 204.983163 321.516361 
L 213.757149 327.327366 
L 222.531136 333.330458 
L 231.305122 337.772804 
L 240.079109 339.896483 
L 248.853095 338.051189 
L 257.627082 332.852599 
L 266.401068 327.424427 
L 275.175055 321.878456 
L 283.949041 317.824688 
L 292.723028 318.311096 
L 301.497014 321.936423 
L 310.271001 327.366998 
L 319.044987 333.138407 
L 327.818974 337.445836 
L 336.59296 339.486521 
L 345.366947 337.681596 
L 354.140933 332.212256 
L 362.91492 326.262399 
L 371.688906 320.212155 
L 380.462893 315.246949 
L 389.236879 314.690522 
L 398.010866 317.442441 
L 406.784852 322.075301 
L 415.558839 327.199164 
L 424.332825 330.985406 
L 433.106812 332.561584 
L 441.880798 330.462082 
L 450.654785 324.464243 
L 459.428771 317.736156 
L 468.202758 310.985951 
L 476.976744 305.008056 
L 485.750731 303.308182 
L 494.524717 305.165192 
L 503.298704 309.051934 
L 512.07269 313.654017 
L 520.846677 317.141844 
L 529.620663 318.548987 
L 538.394649 316.545433 
L 547.168636 310.539179 
L 555.942622 303.596103 
L 564.716609 296.784642 
L 573.490595 290.548592 
L 582.264582 288.462582 
L 591.038568 290.241232 
L 599.812555 294.248298 
L 608.586541 299.229601 
L 617.360528 303.363083 
L 626.134514 305.560502 
L 634.908501 304.626989 
L 643.682487 299.637685 
L 652.456474 293.465887 
L 661.23046 287.549326 
L 670.004447 282.033246 
L 678.778433 280.444327 
L 687.55242 282.974454 
L 696.326406 287.880583 
" clip-path="url(#p56bc05d8a0)" style="fill: none; stroke: #9467bd; stroke-width: 1.5; stroke-linecap: round"/>
   </g>
   <g id="patch_10">
    <path d="M 47.051406 386.28875 
L 47.051406 232.535625 
" style="fill: none; stroke: #ffffff; stroke-width: 0.8; stroke-linejoin: miter; stroke-linecap: square"/>
   </g>
   <g id="patch_11">
    <path d="M 696.326406 386.28875 
L 696.326406 232.535625 
" style="fill: none; stroke: #ffffff; stroke-width: 0.8; stroke-linejoin: miter; stroke-linecap: square"/>
   </g>
   <g id="patch_12">
    <path d="M 47.051406 386.28875 
L 696.326406 386.28875 
" style="fill: none; stroke: #ffffff; stroke-width: 0.8; stroke-linejoin: miter; stroke-linecap: square"/>
   </g>
   <g id="patch_13">
    <path d="M 47.051406 232.535625 
L 696.326406 232.535625 
" style="fill: none; stroke: #ffffff; stroke-width: 0.8; stroke-linejoin: miter; stroke-linecap: square"/>
   </g>
   <g id="text_38">
    <!-- 5 different function realizations from posterior -->
    <g style="fill: #262626" transform="translate(251.744219 226.535625)scale(0.12 -0.12)">
     <defs>
      <path id="ArialMT-63" d="M 2588 1216 
L 3141 1144 
Q 3050 572 2676 248 
Q 2303 -75 1759 -75 
Q 1078 -75 664 370 
Q 250 816 250 1647 
Q 250 2184 428 2587 
Q 606 2991 970 3192 
Q 1334 3394 1763 3394 
Q 2303 3394 2647 3120 
Q 2991 2847 3088 2344 
L 2541 2259 
Q 2463 2594 2264 2762 
Q 2066 2931 1784 2931 
Q 1359 2931 1093 2626 
Q 828 2322 828 1663 
Q 828 994 1084 691 
Q 1341 388 1753 388 
Q 2084 388 2306 591 
Q 2528 794 2588 1216 
z
" transform="scale(0.015625)"/>
      <path id="ArialMT-6c" d="M 409 0 
L 409 4581 
L 972 4581 
L 972 0 
L 409 0 
z
" transform="scale(0.015625)"/>
      <path id="ArialMT-7a" d="M 125 0 
L 125 456 
L 2238 2881 
Q 1878 2863 1603 2863 
L 250 2863 
L 250 3319 
L 2963 3319 
L 2963 2947 
L 1166 841 
L 819 456 
Q 1197 484 1528 484 
L 3063 484 
L 3063 0 
L 125 0 
z
" transform="scale(0.015625)"/>
      <path id="ArialMT-6d" d="M 422 0 
L 422 3319 
L 925 3319 
L 925 2853 
Q 1081 3097 1340 3245 
Q 1600 3394 1931 3394 
Q 2300 3394 2536 3241 
Q 2772 3088 2869 2813 
Q 3263 3394 3894 3394 
Q 4388 3394 4653 3120 
Q 4919 2847 4919 2278 
L 4919 0 
L 4359 0 
L 4359 2091 
Q 4359 2428 4304 2576 
Q 4250 2725 4106 2815 
Q 3963 2906 3769 2906 
Q 3419 2906 3187 2673 
Q 2956 2441 2956 1928 
L 2956 0 
L 2394 0 
L 2394 2156 
Q 2394 2531 2256 2718 
Q 2119 2906 1806 2906 
Q 1569 2906 1367 2781 
Q 1166 2656 1075 2415 
Q 984 2175 984 1722 
L 984 0 
L 422 0 
z
" transform="scale(0.015625)"/>
     </defs>
     <use xlink:href="#ArialMT-35"/>
     <use xlink:href="#ArialMT-20" x="55.615234"/>
     <use xlink:href="#ArialMT-64" x="83.398438"/>
     <use xlink:href="#ArialMT-69" x="139.013672"/>
     <use xlink:href="#ArialMT-66" x="161.230469"/>
     <use xlink:href="#ArialMT-66" x="187.263672"/>
     <use xlink:href="#ArialMT-65" x="215.046875"/>
     <use xlink:href="#ArialMT-72" x="270.662109"/>
     <use xlink:href="#ArialMT-65" x="303.962891"/>
     <use xlink:href="#ArialMT-6e" x="359.578125"/>
     <use xlink:href="#ArialMT-74" x="415.193359"/>
     <use xlink:href="#ArialMT-20" x="442.976562"/>
     <use xlink:href="#ArialMT-66" x="470.759766"/>
     <use xlink:href="#ArialMT-75" x="498.542969"/>
     <use xlink:href="#ArialMT-6e" x="554.158203"/>
     <use xlink:href="#ArialMT-63" x="609.773438"/>
     <use xlink:href="#ArialMT-74" x="659.773438"/>
     <use xlink:href="#ArialMT-69" x="687.556641"/>
     <use xlink:href="#ArialMT-6f" x="709.773438"/>
     <use xlink:href="#ArialMT-6e" x="765.388672"/>
     <use xlink:href="#ArialMT-20" x="821.003906"/>
     <use xlink:href="#ArialMT-72" x="848.787109"/>
     <use xlink:href="#ArialMT-65" x="882.087891"/>
     <use xlink:href="#ArialMT-61" x="937.703125"/>
     <use xlink:href="#ArialMT-6c" x="993.318359"/>
     <use xlink:href="#ArialMT-69" x="1015.535156"/>
     <use xlink:href="#ArialMT-7a" x="1037.751953"/>
     <use xlink:href="#ArialMT-61" x="1087.751953"/>
     <use xlink:href="#ArialMT-74" x="1143.367188"/>
     <use xlink:href="#ArialMT-69" x="1171.150391"/>
     <use xlink:href="#ArialMT-6f" x="1193.367188"/>
     <use xlink:href="#ArialMT-6e" x="1248.982422"/>
     <use xlink:href="#ArialMT-73" x="1304.597656"/>
     <use xlink:href="#ArialMT-20" x="1354.597656"/>
     <use xlink:href="#ArialMT-66" x="1382.380859"/>
     <use xlink:href="#ArialMT-72" x="1410.164062"/>
     <use xlink:href="#ArialMT-6f" x="1443.464844"/>
     <use xlink:href="#ArialMT-6d" x="1499.080078"/>
     <use xlink:href="#ArialMT-20" x="1582.380859"/>
     <use xlink:href="#ArialMT-70" x="1610.164062"/>
     <use xlink:href="#ArialMT-6f" x="1665.779297"/>
     <use xlink:href="#ArialMT-73" x="1721.394531"/>
     <use xlink:href="#ArialMT-74" x="1771.394531"/>
     <use xlink:href="#ArialMT-65" x="1799.177734"/>
     <use xlink:href="#ArialMT-72" x="1854.792969"/>
     <use xlink:href="#ArialMT-69" x="1888.09375"/>
     <use xlink:href="#ArialMT-6f" x="1910.310547"/>
     <use xlink:href="#ArialMT-72" x="1965.925781"/>
    </g>
   </g>
  </g>
 </g>
 <defs>
  <clipPath id="padf12c1fa4">
   <rect x="47.051406" y="21.935625" width="649.275" height="153.753125"/>
  </clipPath>
  <clipPath id="p56bc05d8a0">
   <rect x="47.051406" y="232.535625" width="649.275" height="153.753125"/>
  </clipPath>
 </defs>
</svg>
