<?xml version="1.0" encoding="utf-8" standalone="no"?>
<!DOCTYPE svg PUBLIC "-//W3C//DTD SVG 1.1//EN"
  "http://www.w3.org/Graphics/SVG/1.1/DTD/svg11.dtd">
<svg xmlns:xlink="http://www.w3.org/1999/xlink" width="710.490469pt" height="425.522969pt" viewBox="0 0 710.490469 425.522969" xmlns="http://www.w3.org/2000/svg" version="1.1">
 <metadata>
  <rdf:RDF xmlns:dc="http://purl.org/dc/elements/1.1/" xmlns:cc="http://creativecommons.org/ns#" xmlns:rdf="http://www.w3.org/1999/02/22-rdf-syntax-ns#">
   <cc:Work>
    <dc:type rdf:resource="http://purl.org/dc/dcmitype/StillImage"/>
    <dc:date>2022-11-21T10:25:38.736055</dc:date>
    <dc:format>image/svg+xml</dc:format>
    <dc:creator>
     <cc:Agent>
      <dc:title>Matplotlib v3.5.0, https://matplotlib.org/</dc:title>
     </cc:Agent>
    </dc:creator>
   </cc:Work>
  </rdf:RDF>
 </metadata>
 <defs>
  <style type="text/css">*{stroke-linejoin: round; stroke-linecap: butt}</style>
 </defs>
 <g id="figure_1">
  <g id="patch_1">
   <path d="M 0 425.522969 
L 710.490469 425.522969 
L 710.490469 0 
L 0 0 
z
" style="fill: #ffffff"/>
  </g>
  <g id="axes_1">
   <g id="patch_2">
    <path d="M 49.829531 175.68875 
L 697.729531 175.68875 
L 697.729531 21.935625 
L 49.829531 21.935625 
z
" style="fill: #eaeaf2"/>
   </g>
   <g id="matplotlib.axis_1">
    <g id="xtick_1">
     <g id="line2d_1">
      <path d="M 49.829531 175.68875 
L 49.829531 21.935625 
" clip-path="url(#p8356a584a2)" style="fill: none; stroke: #ffffff; stroke-width: 0.8; stroke-linecap: round"/>
     </g>
     <g id="text_1">
      <!-- 0 -->
      <g style="fill: #262626" transform="translate(47.049063 189.846562)scale(0.1 -0.1)">
       <defs>
        <path id="ArialMT-30" d="M 266 2259 
Q 266 3072 433 3567 
Q 600 4063 929 4331 
Q 1259 4600 1759 4600 
Q 2128 4600 2406 4451 
Q 2684 4303 2865 4023 
Q 3047 3744 3150 3342 
Q 3253 2941 3253 2259 
Q 3253 1453 3087 958 
Q 2922 463 2592 192 
Q 2263 -78 1759 -78 
Q 1097 -78 719 397 
Q 266 969 266 2259 
z
M 844 2259 
Q 844 1131 1108 757 
Q 1372 384 1759 384 
Q 2147 384 2411 759 
Q 2675 1134 2675 2259 
Q 2675 3391 2411 3762 
Q 2147 4134 1753 4134 
Q 1366 4134 1134 3806 
Q 844 3388 844 2259 
z
" transform="scale(0.015625)"/>
       </defs>
       <use xlink:href="#ArialMT-30"/>
      </g>
     </g>
    </g>
    <g id="xtick_2">
     <g id="line2d_2">
      <path d="M 179.409531 175.68875 
L 179.409531 21.935625 
" clip-path="url(#p8356a584a2)" style="fill: none; stroke: #ffffff; stroke-width: 0.8; stroke-linecap: round"/>
     </g>
     <g id="text_2">
      <!-- 2 -->
      <g style="fill: #262626" transform="translate(176.629063 189.846562)scale(0.1 -0.1)">
       <defs>
        <path id="ArialMT-32" d="M 3222 541 
L 3222 0 
L 194 0 
Q 188 203 259 391 
Q 375 700 629 1000 
Q 884 1300 1366 1694 
Q 2113 2306 2375 2664 
Q 2638 3022 2638 3341 
Q 2638 3675 2398 3904 
Q 2159 4134 1775 4134 
Q 1369 4134 1125 3890 
Q 881 3647 878 3216 
L 300 3275 
Q 359 3922 746 4261 
Q 1134 4600 1788 4600 
Q 2447 4600 2831 4234 
Q 3216 3869 3216 3328 
Q 3216 3053 3103 2787 
Q 2991 2522 2730 2228 
Q 2469 1934 1863 1422 
Q 1356 997 1212 845 
Q 1069 694 975 541 
L 3222 541 
z
" transform="scale(0.015625)"/>
       </defs>
       <use xlink:href="#ArialMT-32"/>
      </g>
     </g>
    </g>
    <g id="xtick_3">
     <g id="line2d_3">
      <path d="M 308.989531 175.68875 
L 308.989531 21.935625 
" clip-path="url(#p8356a584a2)" style="fill: none; stroke: #ffffff; stroke-width: 0.8; stroke-linecap: round"/>
     </g>
     <g id="text_3">
      <!-- 4 -->
      <g style="fill: #262626" transform="translate(306.209063 189.846562)scale(0.1 -0.1)">
       <defs>
        <path id="ArialMT-34" d="M 2069 0 
L 2069 1097 
L 81 1097 
L 81 1613 
L 2172 4581 
L 2631 4581 
L 2631 1613 
L 3250 1613 
L 3250 1097 
L 2631 1097 
L 2631 0 
L 2069 0 
z
M 2069 1613 
L 2069 3678 
L 634 1613 
L 2069 1613 
z
" transform="scale(0.015625)"/>
       </defs>
       <use xlink:href="#ArialMT-34"/>
      </g>
     </g>
    </g>
    <g id="xtick_4">
     <g id="line2d_4">
      <path d="M 438.569531 175.68875 
L 438.569531 21.935625 
" clip-path="url(#p8356a584a2)" style="fill: none; stroke: #ffffff; stroke-width: 0.8; stroke-linecap: round"/>
     </g>
     <g id="text_4">
      <!-- 6 -->
      <g style="fill: #262626" transform="translate(435.789062 189.846562)scale(0.1 -0.1)">
       <defs>
        <path id="ArialMT-36" d="M 3184 3459 
L 2625 3416 
Q 2550 3747 2413 3897 
Q 2184 4138 1850 4138 
Q 1581 4138 1378 3988 
Q 1113 3794 959 3422 
Q 806 3050 800 2363 
Q 1003 2672 1297 2822 
Q 1591 2972 1913 2972 
Q 2475 2972 2870 2558 
Q 3266 2144 3266 1488 
Q 3266 1056 3080 686 
Q 2894 316 2569 119 
Q 2244 -78 1831 -78 
Q 1128 -78 684 439 
Q 241 956 241 2144 
Q 241 3472 731 4075 
Q 1159 4600 1884 4600 
Q 2425 4600 2770 4297 
Q 3116 3994 3184 3459 
z
M 888 1484 
Q 888 1194 1011 928 
Q 1134 663 1356 523 
Q 1578 384 1822 384 
Q 2178 384 2434 671 
Q 2691 959 2691 1453 
Q 2691 1928 2437 2201 
Q 2184 2475 1800 2475 
Q 1419 2475 1153 2201 
Q 888 1928 888 1484 
z
" transform="scale(0.015625)"/>
       </defs>
       <use xlink:href="#ArialMT-36"/>
      </g>
     </g>
    </g>
    <g id="xtick_5">
     <g id="line2d_5">
      <path d="M 568.149531 175.68875 
L 568.149531 21.935625 
" clip-path="url(#p8356a584a2)" style="fill: none; stroke: #ffffff; stroke-width: 0.8; stroke-linecap: round"/>
     </g>
     <g id="text_5">
      <!-- 8 -->
      <g style="fill: #262626" transform="translate(565.369063 189.846562)scale(0.1 -0.1)">
       <defs>
        <path id="ArialMT-38" d="M 1131 2484 
Q 781 2613 612 2850 
Q 444 3088 444 3419 
Q 444 3919 803 4259 
Q 1163 4600 1759 4600 
Q 2359 4600 2725 4251 
Q 3091 3903 3091 3403 
Q 3091 3084 2923 2848 
Q 2756 2613 2416 2484 
Q 2838 2347 3058 2040 
Q 3278 1734 3278 1309 
Q 3278 722 2862 322 
Q 2447 -78 1769 -78 
Q 1091 -78 675 323 
Q 259 725 259 1325 
Q 259 1772 486 2073 
Q 713 2375 1131 2484 
z
M 1019 3438 
Q 1019 3113 1228 2906 
Q 1438 2700 1772 2700 
Q 2097 2700 2305 2904 
Q 2513 3109 2513 3406 
Q 2513 3716 2298 3927 
Q 2084 4138 1766 4138 
Q 1444 4138 1231 3931 
Q 1019 3725 1019 3438 
z
M 838 1322 
Q 838 1081 952 856 
Q 1066 631 1291 507 
Q 1516 384 1775 384 
Q 2178 384 2440 643 
Q 2703 903 2703 1303 
Q 2703 1709 2433 1975 
Q 2163 2241 1756 2241 
Q 1359 2241 1098 1978 
Q 838 1716 838 1322 
z
" transform="scale(0.015625)"/>
       </defs>
       <use xlink:href="#ArialMT-38"/>
      </g>
     </g>
    </g>
    <g id="xtick_6">
     <g id="line2d_6">
      <path d="M 697.729531 175.68875 
L 697.729531 21.935625 
" clip-path="url(#p8356a584a2)" style="fill: none; stroke: #ffffff; stroke-width: 0.8; stroke-linecap: round"/>
     </g>
     <g id="text_6">
      <!-- 10 -->
      <g style="fill: #262626" transform="translate(692.168594 189.846562)scale(0.1 -0.1)">
       <defs>
        <path id="ArialMT-31" d="M 2384 0 
L 1822 0 
L 1822 3584 
Q 1619 3391 1289 3197 
Q 959 3003 697 2906 
L 697 3450 
Q 1169 3672 1522 3987 
Q 1875 4303 2022 4600 
L 2384 4600 
L 2384 0 
z
" transform="scale(0.015625)"/>
       </defs>
       <use xlink:href="#ArialMT-31"/>
       <use xlink:href="#ArialMT-30" x="55.615234"/>
      </g>
     </g>
    </g>
    <g id="text_7">
     <!-- $x$ -->
     <g style="fill: #262626" transform="translate(369.879531 205.139219)scale(0.13 -0.13)">
      <defs>
       <path id="DejaVuSans-Oblique-78" d="M 3841 3500 
L 2234 1784 
L 3219 0 
L 2559 0 
L 1819 1388 
L 531 0 
L -166 0 
L 1556 1844 
L 641 3500 
L 1300 3500 
L 1972 2234 
L 3144 3500 
L 3841 3500 
z
" transform="scale(0.015625)"/>
      </defs>
      <use xlink:href="#DejaVuSans-Oblique-78" transform="translate(0 0.3125)"/>
     </g>
    </g>
   </g>
   <g id="matplotlib.axis_2">
    <g id="ytick_1">
     <g id="line2d_7">
      <path d="M 49.829531 150.070764 
L 697.729531 150.070764 
" clip-path="url(#p8356a584a2)" style="fill: none; stroke: #ffffff; stroke-width: 0.8; stroke-linecap: round"/>
     </g>
     <g id="text_8">
      <!-- −1.0 -->
      <g style="fill: #262626" transform="translate(23.088906 153.649671)scale(0.1 -0.1)">
       <defs>
        <path id="ArialMT-2212" d="M 3381 1997 
L 356 1997 
L 356 2522 
L 3381 2522 
L 3381 1997 
z
" transform="scale(0.015625)"/>
        <path id="ArialMT-2e" d="M 581 0 
L 581 641 
L 1222 641 
L 1222 0 
L 581 0 
z
" transform="scale(0.015625)"/>
       </defs>
       <use xlink:href="#ArialMT-2212"/>
       <use xlink:href="#ArialMT-31" x="58.398438"/>
       <use xlink:href="#ArialMT-2e" x="114.013672"/>
       <use xlink:href="#ArialMT-30" x="141.796875"/>
      </g>
     </g>
    </g>
    <g id="ytick_2">
     <g id="line2d_8">
      <path d="M 49.829531 124.441733 
L 697.729531 124.441733 
" clip-path="url(#p8356a584a2)" style="fill: none; stroke: #ffffff; stroke-width: 0.8; stroke-linecap: round"/>
     </g>
     <g id="text_9">
      <!-- −0.5 -->
      <g style="fill: #262626" transform="translate(23.088906 128.020639)scale(0.1 -0.1)">
       <defs>
        <path id="ArialMT-35" d="M 266 1200 
L 856 1250 
Q 922 819 1161 601 
Q 1400 384 1738 384 
Q 2144 384 2425 690 
Q 2706 997 2706 1503 
Q 2706 1984 2436 2262 
Q 2166 2541 1728 2541 
Q 1456 2541 1237 2417 
Q 1019 2294 894 2097 
L 366 2166 
L 809 4519 
L 3088 4519 
L 3088 3981 
L 1259 3981 
L 1013 2750 
Q 1425 3038 1878 3038 
Q 2478 3038 2890 2622 
Q 3303 2206 3303 1553 
Q 3303 931 2941 478 
Q 2500 -78 1738 -78 
Q 1113 -78 717 272 
Q 322 622 266 1200 
z
" transform="scale(0.015625)"/>
       </defs>
       <use xlink:href="#ArialMT-2212"/>
       <use xlink:href="#ArialMT-30" x="58.398438"/>
       <use xlink:href="#ArialMT-2e" x="114.013672"/>
       <use xlink:href="#ArialMT-35" x="141.796875"/>
      </g>
     </g>
    </g>
    <g id="ytick_3">
     <g id="line2d_9">
      <path d="M 49.829531 98.812701 
L 697.729531 98.812701 
" clip-path="url(#p8356a584a2)" style="fill: none; stroke: #ffffff; stroke-width: 0.8; stroke-linecap: round"/>
     </g>
     <g id="text_10">
      <!-- 0.0 -->
      <g style="fill: #262626" transform="translate(28.929531 102.391607)scale(0.1 -0.1)">
       <use xlink:href="#ArialMT-30"/>
       <use xlink:href="#ArialMT-2e" x="55.615234"/>
       <use xlink:href="#ArialMT-30" x="83.398438"/>
      </g>
     </g>
    </g>
    <g id="ytick_4">
     <g id="line2d_10">
      <path d="M 49.829531 73.183669 
L 697.729531 73.183669 
" clip-path="url(#p8356a584a2)" style="fill: none; stroke: #ffffff; stroke-width: 0.8; stroke-linecap: round"/>
     </g>
     <g id="text_11">
      <!-- 0.5 -->
      <g style="fill: #262626" transform="translate(28.929531 76.762576)scale(0.1 -0.1)">
       <use xlink:href="#ArialMT-30"/>
       <use xlink:href="#ArialMT-2e" x="55.615234"/>
       <use xlink:href="#ArialMT-35" x="83.398438"/>
      </g>
     </g>
    </g>
    <g id="ytick_5">
     <g id="line2d_11">
      <path d="M 49.829531 47.554638 
L 697.729531 47.554638 
" clip-path="url(#p8356a584a2)" style="fill: none; stroke: #ffffff; stroke-width: 0.8; stroke-linecap: round"/>
     </g>
     <g id="text_12">
      <!-- 1.0 -->
      <g style="fill: #262626" transform="translate(28.929531 51.133544)scale(0.1 -0.1)">
       <use xlink:href="#ArialMT-31"/>
       <use xlink:href="#ArialMT-2e" x="55.615234"/>
       <use xlink:href="#ArialMT-30" x="83.398438"/>
      </g>
     </g>
    </g>
    <g id="text_13">
     <!-- $y$ -->
     <g style="fill: #262626" transform="translate(16.358906 102.712187)rotate(-90)scale(0.13 -0.13)">
      <defs>
       <path id="DejaVuSans-Oblique-79" d="M 1588 -325 
Q 1188 -997 936 -1164 
Q 684 -1331 294 -1331 
L -159 -1331 
L -63 -850 
L 269 -850 
Q 509 -850 678 -719 
Q 847 -588 1056 -206 
L 1234 128 
L 459 3500 
L 1069 3500 
L 1650 819 
L 3256 3500 
L 3859 3500 
L 1588 -325 
z
" transform="scale(0.015625)"/>
      </defs>
      <use xlink:href="#DejaVuSans-Oblique-79" transform="translate(0 0.3125)"/>
     </g>
    </g>
   </g>
   <g id="PolyCollection_1">
    <defs>
     <path id="m8075835248" d="M 49.829531 -429.650221 
L 49.829531 -224.641428 
L 58.584937 -224.859575 
L 67.340342 -225.17016 
L 76.095747 -225.606986 
L 84.851153 -226.214643 
L 93.606558 -227.051377 
L 102.361964 -228.192092 
L 111.117369 -229.730846 
L 119.872774 -231.781809 
L 128.62818 -234.477343 
L 137.383585 -237.961831 
L 146.138991 -242.380258 
L 154.894396 -247.861342 
L 163.649802 -254.496132 
L 172.405207 -262.314149 
L 181.160612 -271.260144 
L 189.916018 -281.175104 
L 198.671423 -291.785209 
L 207.426829 -302.701928 
L 216.182234 -313.435396 
L 224.937639 -323.421734 
L 233.693045 -332.063252 
L 242.44845 -333.257856 
L 251.203856 -319.387735 
L 259.959261 -306.723239 
L 268.714666 -295.826857 
L 277.470072 -287.141579 
L 286.225477 -280.943275 
L 294.980883 -277.308531 
L 303.736288 -276.103099 
L 312.491693 -276.993894 
L 321.247099 -279.484669 
L 330.002504 -274.755818 
L 338.75791 -265.522417 
L 347.513315 -258.821874 
L 356.26872 -255.131817 
L 365.024126 -254.669166 
L 373.779531 -257.371533 
L 382.534937 -262.907748 
L 391.290342 -270.717156 
L 400.045747 -280.073838 
L 408.801153 -290.168748 
L 417.556558 -294.746552 
L 426.311964 -297.33409 
L 435.067369 -302.009891 
L 443.822774 -308.924667 
L 452.57818 -317.968909 
L 461.333585 -328.77068 
L 470.088991 -333.593116 
L 478.844396 -335.008428 
L 487.599802 -336.403429 
L 496.355207 -338.351882 
L 505.110612 -341.339628 
L 513.866018 -345.705916 
L 522.621423 -351.607007 
L 531.376829 -359.005263 
L 540.132234 -367.683251 
L 548.887639 -377.278986 
L 557.643045 -367.131669 
L 566.39845 -354.759253 
L 575.153856 -341.066801 
L 583.909261 -326.742681 
L 592.664666 -312.426809 
L 601.420072 -298.667349 
L 610.175477 -285.892346 
L 618.930883 -274.397127 
L 627.686288 -264.346329 
L 636.441693 -255.787891 
L 645.197099 -248.675308 
L 653.952504 -242.894024 
L 662.70791 -238.288031 
L 671.463315 -234.683453 
L 680.21872 -231.907018 
L 688.974126 -229.798582 
L 697.729531 -228.218032 
L 697.729531 -432.541138 
L 697.729531 -432.541138 
L 688.974126 -433.541637 
L 680.21872 -434.679853 
L 671.463315 -435.897077 
L 662.70791 -437.093621 
L 653.952504 -438.124379 
L 645.197099 -438.799974 
L 636.441693 -438.895143 
L 627.686288 -438.165016 
L 618.930883 -436.368662 
L 610.175477 -433.297863 
L 601.420072 -428.807853 
L 592.664666 -422.84588 
L 583.909261 -415.473078 
L 575.153856 -406.87535 
L 566.39845 -397.359942 
L 557.643045 -387.335926 
L 548.887639 -377.502543 
L 540.132234 -385.259603 
L 531.376829 -389.922699 
L 522.621423 -391.199692 
L 513.866018 -389.027866 
L 505.110612 -383.594388 
L 496.355207 -375.331417 
L 487.599802 -364.884339 
L 478.844396 -353.055052 
L 470.088991 -340.725622 
L 461.333585 -331.570033 
L 452.57818 -328.418408 
L 443.822774 -323.759978 
L 435.067369 -317.419665 
L 426.311964 -309.462381 
L 417.556558 -300.20027 
L 408.801153 -293.870672 
L 400.045747 -294.165839 
L 391.290342 -295.00861 
L 382.534937 -295.782274 
L 373.779531 -295.962917 
L 365.024126 -295.190773 
L 356.26872 -293.317933 
L 347.513315 -290.426902 
L 338.75791 -286.818593 
L 330.002504 -282.972416 
L 321.247099 -285.828521 
L 312.491693 -297.896314 
L 303.736288 -310.042426 
L 294.980883 -321.35983 
L 286.225477 -331.029133 
L 277.470072 -338.384379 
L 268.714666 -342.960852 
L 259.959261 -344.521172 
L 251.203856 -343.058559 
L 242.44845 -338.778626 
L 233.693045 -347.708174 
L 224.937639 -362.108829 
L 216.182234 -375.879422 
L 207.426829 -388.532945 
L 198.671423 -399.706049 
L 189.916018 -409.17398 
L 181.160612 -416.850388 
L 172.405207 -422.773954 
L 163.649802 -427.084997 
L 154.894396 -429.99599 
L 146.138991 -431.7601 
L 137.383585 -432.641551 
L 128.62818 -432.890873 
L 119.872774 -432.727038 
L 111.117369 -432.327234 
L 102.361964 -431.823833 
L 93.606558 -431.307122 
L 84.851153 -430.831824 
L 76.095747 -430.425367 
L 67.340342 -430.096194 
L 58.584937 -429.840981 
L 49.829531 -429.650221 
z
" style="stroke: #ff0000; stroke-opacity: 0.15"/>
    </defs>
    <g clip-path="url(#p8356a584a2)">
     <use xlink:href="#m8075835248" x="0" y="425.522969" style="fill: #ff0000; fill-opacity: 0.15; stroke: #ff0000; stroke-opacity: 0.15"/>
    </g>
   </g>
   <g id="line2d_12">
    <path d="M 49.829531 98.812701 
L 58.584937 91.906999 
L 67.340342 85.127213 
L 76.095747 78.596965 
L 84.851153 72.435325 
L 93.606558 66.754643 
L 102.361964 61.658499 
L 111.117369 57.239815 
L 119.872774 53.57916 
L 128.62818 50.743281 
L 137.383585 48.783887 
L 146.138991 47.736705 
L 154.894396 47.620829 
L 163.649802 48.438371 
L 172.405207 50.174426 
L 181.160612 52.797338 
L 189.916018 56.259282 
L 198.671423 60.497133 
L 207.426829 65.43362 
L 216.182234 70.978732 
L 224.937639 77.031362 
L 233.693045 83.481146 
L 242.44845 90.210482 
L 251.203856 97.096669 
L 259.959261 104.014145 
L 268.714666 110.836779 
L 277.470072 117.44017 
L 286.225477 123.703912 
L 294.980883 129.513795 
L 303.736288 134.763882 
L 312.491693 139.358445 
L 321.247099 143.213708 
L 330.002504 146.259375 
L 338.75791 148.439912 
L 347.513315 149.715559 
L 356.26872 150.063058 
L 365.024126 149.476071 
L 373.779531 147.965302 
L 382.534937 145.558298 
L 391.290342 142.298947 
L 400.045747 138.24668 
L 408.801153 133.475384 
L 417.556558 128.072057 
L 426.311964 122.135224 
L 435.067369 115.773134 
L 443.822774 109.101792 
L 452.57818 102.242842 
L 461.333585 95.321347 
L 470.088991 88.463513 
L 478.844396 81.794383 
L 487.599802 75.43556 
L 496.355207 69.50299 
L 505.110612 64.104845 
L 513.866018 59.339554 
L 522.621423 55.294006 
L 531.376829 52.041966 
L 540.132234 49.642731 
L 548.887639 48.140048 
L 557.643045 47.561317 
L 566.39845 47.91709 
L 575.153856 49.200879 
L 583.909261 51.389277 
L 592.664666 54.442381 
L 601.420072 58.304522 
L 610.175477 62.905278 
L 618.930883 68.16076 
L 627.686288 73.975141 
L 636.441693 80.242404 
L 645.197099 86.848273 
L 653.952504 93.672298 
L 662.70791 100.590051 
L 671.463315 107.475397 
L 680.21872 114.20279 
L 688.974126 120.649563 
L 697.729531 126.69817 
" clip-path="url(#p8356a584a2)" style="fill: none; stroke-dasharray: 5.55,2.4; stroke-dashoffset: 0; stroke: #0000ff; stroke-width: 1.5"/>
   </g>
   <g id="line2d_13">
    <path d="M 49.829531 98.377144 
L 58.584937 98.172691 
L 67.340342 97.889792 
L 76.095747 97.506792 
L 84.851153 96.999735 
L 93.606558 96.343719 
L 102.361964 95.515006 
L 111.117369 94.493929 
L 119.872774 93.268546 
L 128.62818 91.838861 
L 137.383585 90.221278 
L 146.138991 88.45279 
L 154.894396 86.594303 
L 163.649802 84.732404 
L 172.405207 82.978917 
L 181.160612 81.467703 
L 189.916018 80.348427 
L 198.671423 79.77734 
L 207.426829 79.905532 
L 216.182234 80.86556 
L 224.937639 82.757687 
L 233.693045 85.637256 
L 242.44845 89.504727 
L 251.203856 94.299822 
L 259.959261 99.900763 
L 268.714666 106.129114 
L 277.470072 112.75999 
L 286.225477 119.536765 
L 294.980883 126.188788 
L 303.736288 132.450206 
L 312.491693 138.077865 
L 321.247099 142.866374 
L 330.002504 146.658852 
L 338.75791 149.352464 
L 347.513315 150.898581 
L 356.26872 151.298093 
L 365.024126 150.592999 
L 373.779531 148.855744 
L 382.534937 146.177958 
L 391.290342 142.660086 
L 400.045747 138.40313 
L 408.801153 133.503259 
L 417.556558 128.049558 
L 426.311964 122.124733 
L 435.067369 115.80819 
L 443.822774 109.180647 
L 452.57818 102.32931 
L 461.333585 95.352612 
L 470.088991 88.3636 
L 478.844396 81.491229 
L 487.599802 74.879085 
L 496.355207 68.681319 
L 505.110612 63.055961 
L 513.866018 58.156078 
L 522.621423 54.119619 
L 531.376829 51.058987 
L 540.132234 49.051542 
L 548.887639 48.132204 
L 557.643045 48.289171 
L 566.39845 49.463371 
L 575.153856 51.551893 
L 583.909261 54.415089 
L 592.664666 57.886624 
L 601.420072 61.785368 
L 610.175477 65.927864 
L 618.930883 70.140074 
L 627.686288 74.267296 
L 636.441693 78.181451 
L 645.197099 81.785328 
L 653.952504 85.013768 
L 662.70791 87.832143 
L 671.463315 90.232704 
L 680.21872 92.229533 
L 688.974126 93.852859 
L 697.729531 95.143384 
" clip-path="url(#p8356a584a2)" style="fill: none; stroke: #ff0000; stroke-width: 2; stroke-linecap: round"/>
   </g>
   <g id="line2d_14">
    <defs>
     <path id="mb45b2cc59f" d="M 0 3 
C 0.795609 3 1.55874 2.683901 2.12132 2.12132 
C 2.683901 1.55874 3 0.795609 3 0 
C 3 -0.795609 2.683901 -1.55874 2.12132 -2.12132 
C 1.55874 -2.683901 0.795609 -3 0 -3 
C -0.795609 -3 -1.55874 -2.683901 -2.12132 -2.12132 
C -2.683901 -1.55874 -3 -0.795609 -3 0 
C -3 0.795609 -2.683901 1.55874 -2.12132 2.12132 
C -1.55874 2.683901 -0.795609 3 0 3 
z
" style="stroke: #000000"/>
    </defs>
    <g clip-path="url(#p8356a584a2)">
     <use xlink:href="#mb45b2cc59f" x="325.008257" y="144.624855" style="stroke: #000000"/>
     <use xlink:href="#mb45b2cc59f" x="548.990211" y="48.127883" style="stroke: #000000"/>
     <use xlink:href="#mb45b2cc59f" x="463.964856" y="93.247923" style="stroke: #000000"/>
     <use xlink:href="#mb45b2cc59f" x="412.13203" y="131.489139" style="stroke: #000000"/>
     <use xlink:href="#mb45b2cc59f" x="240.060218" y="88.354115" style="stroke: #000000"/>
    </g>
   </g>
   <g id="patch_3">
    <path d="M 49.829531 175.68875 
L 49.829531 21.935625 
" style="fill: none; stroke: #ffffff; stroke-width: 0.8; stroke-linejoin: miter; stroke-linecap: square"/>
   </g>
   <g id="patch_4">
    <path d="M 697.729531 175.68875 
L 697.729531 21.935625 
" style="fill: none; stroke: #ffffff; stroke-width: 0.8; stroke-linejoin: miter; stroke-linecap: square"/>
   </g>
   <g id="patch_5">
    <path d="M 49.829531 175.68875 
L 697.729531 175.68875 
" style="fill: none; stroke: #ffffff; stroke-width: 0.8; stroke-linejoin: miter; stroke-linecap: square"/>
   </g>
   <g id="patch_6">
    <path d="M 49.829531 21.935625 
L 697.729531 21.935625 
" style="fill: none; stroke: #ffffff; stroke-width: 0.8; stroke-linejoin: miter; stroke-linecap: square"/>
   </g>
   <g id="text_14">
    <!-- Distribution of posterior and prior data -->
    <g style="fill: #262626" transform="translate(273.401406 15.935625)scale(0.12 -0.12)">
     <defs>
      <path id="ArialMT-44" d="M 494 0 
L 494 4581 
L 2072 4581 
Q 2606 4581 2888 4516 
Q 3281 4425 3559 4188 
Q 3922 3881 4101 3404 
Q 4281 2928 4281 2316 
Q 4281 1794 4159 1391 
Q 4038 988 3847 723 
Q 3656 459 3429 307 
Q 3203 156 2883 78 
Q 2563 0 2147 0 
L 494 0 
z
M 1100 541 
L 2078 541 
Q 2531 541 2789 625 
Q 3047 709 3200 863 
Q 3416 1078 3536 1442 
Q 3656 1806 3656 2325 
Q 3656 3044 3420 3430 
Q 3184 3816 2847 3947 
Q 2603 4041 2063 4041 
L 1100 4041 
L 1100 541 
z
" transform="scale(0.015625)"/>
      <path id="ArialMT-69" d="M 425 3934 
L 425 4581 
L 988 4581 
L 988 3934 
L 425 3934 
z
M 425 0 
L 425 3319 
L 988 3319 
L 988 0 
L 425 0 
z
" transform="scale(0.015625)"/>
      <path id="ArialMT-73" d="M 197 991 
L 753 1078 
Q 800 744 1014 566 
Q 1228 388 1613 388 
Q 2000 388 2187 545 
Q 2375 703 2375 916 
Q 2375 1106 2209 1216 
Q 2094 1291 1634 1406 
Q 1016 1563 777 1677 
Q 538 1791 414 1992 
Q 291 2194 291 2438 
Q 291 2659 392 2848 
Q 494 3038 669 3163 
Q 800 3259 1026 3326 
Q 1253 3394 1513 3394 
Q 1903 3394 2198 3281 
Q 2494 3169 2634 2976 
Q 2775 2784 2828 2463 
L 2278 2388 
Q 2241 2644 2061 2787 
Q 1881 2931 1553 2931 
Q 1166 2931 1000 2803 
Q 834 2675 834 2503 
Q 834 2394 903 2306 
Q 972 2216 1119 2156 
Q 1203 2125 1616 2013 
Q 2213 1853 2448 1751 
Q 2684 1650 2818 1456 
Q 2953 1263 2953 975 
Q 2953 694 2789 445 
Q 2625 197 2315 61 
Q 2006 -75 1616 -75 
Q 969 -75 630 194 
Q 291 463 197 991 
z
" transform="scale(0.015625)"/>
      <path id="ArialMT-74" d="M 1650 503 
L 1731 6 
Q 1494 -44 1306 -44 
Q 1000 -44 831 53 
Q 663 150 594 308 
Q 525 466 525 972 
L 525 2881 
L 113 2881 
L 113 3319 
L 525 3319 
L 525 4141 
L 1084 4478 
L 1084 3319 
L 1650 3319 
L 1650 2881 
L 1084 2881 
L 1084 941 
Q 1084 700 1114 631 
Q 1144 563 1211 522 
Q 1278 481 1403 481 
Q 1497 481 1650 503 
z
" transform="scale(0.015625)"/>
      <path id="ArialMT-72" d="M 416 0 
L 416 3319 
L 922 3319 
L 922 2816 
Q 1116 3169 1280 3281 
Q 1444 3394 1641 3394 
Q 1925 3394 2219 3213 
L 2025 2691 
Q 1819 2813 1613 2813 
Q 1428 2813 1281 2702 
Q 1134 2591 1072 2394 
Q 978 2094 978 1738 
L 978 0 
L 416 0 
z
" transform="scale(0.015625)"/>
      <path id="ArialMT-62" d="M 941 0 
L 419 0 
L 419 4581 
L 981 4581 
L 981 2947 
Q 1338 3394 1891 3394 
Q 2197 3394 2470 3270 
Q 2744 3147 2920 2923 
Q 3097 2700 3197 2384 
Q 3297 2069 3297 1709 
Q 3297 856 2875 390 
Q 2453 -75 1863 -75 
Q 1275 -75 941 416 
L 941 0 
z
M 934 1684 
Q 934 1088 1097 822 
Q 1363 388 1816 388 
Q 2184 388 2453 708 
Q 2722 1028 2722 1663 
Q 2722 2313 2464 2622 
Q 2206 2931 1841 2931 
Q 1472 2931 1203 2611 
Q 934 2291 934 1684 
z
" transform="scale(0.015625)"/>
      <path id="ArialMT-75" d="M 2597 0 
L 2597 488 
Q 2209 -75 1544 -75 
Q 1250 -75 995 37 
Q 741 150 617 320 
Q 494 491 444 738 
Q 409 903 409 1263 
L 409 3319 
L 972 3319 
L 972 1478 
Q 972 1038 1006 884 
Q 1059 663 1231 536 
Q 1403 409 1656 409 
Q 1909 409 2131 539 
Q 2353 669 2445 892 
Q 2538 1116 2538 1541 
L 2538 3319 
L 3100 3319 
L 3100 0 
L 2597 0 
z
" transform="scale(0.015625)"/>
      <path id="ArialMT-6f" d="M 213 1659 
Q 213 2581 725 3025 
Q 1153 3394 1769 3394 
Q 2453 3394 2887 2945 
Q 3322 2497 3322 1706 
Q 3322 1066 3130 698 
Q 2938 331 2570 128 
Q 2203 -75 1769 -75 
Q 1072 -75 642 372 
Q 213 819 213 1659 
z
M 791 1659 
Q 791 1022 1069 705 
Q 1347 388 1769 388 
Q 2188 388 2466 706 
Q 2744 1025 2744 1678 
Q 2744 2294 2464 2611 
Q 2184 2928 1769 2928 
Q 1347 2928 1069 2612 
Q 791 2297 791 1659 
z
" transform="scale(0.015625)"/>
      <path id="ArialMT-6e" d="M 422 0 
L 422 3319 
L 928 3319 
L 928 2847 
Q 1294 3394 1984 3394 
Q 2284 3394 2536 3286 
Q 2788 3178 2913 3003 
Q 3038 2828 3088 2588 
Q 3119 2431 3119 2041 
L 3119 0 
L 2556 0 
L 2556 2019 
Q 2556 2363 2490 2533 
Q 2425 2703 2258 2804 
Q 2091 2906 1866 2906 
Q 1506 2906 1245 2678 
Q 984 2450 984 1813 
L 984 0 
L 422 0 
z
" transform="scale(0.015625)"/>
      <path id="ArialMT-20" transform="scale(0.015625)"/>
      <path id="ArialMT-66" d="M 556 0 
L 556 2881 
L 59 2881 
L 59 3319 
L 556 3319 
L 556 3672 
Q 556 4006 616 4169 
Q 697 4388 901 4523 
Q 1106 4659 1475 4659 
Q 1713 4659 2000 4603 
L 1916 4113 
Q 1741 4144 1584 4144 
Q 1328 4144 1222 4034 
Q 1116 3925 1116 3625 
L 1116 3319 
L 1763 3319 
L 1763 2881 
L 1116 2881 
L 1116 0 
L 556 0 
z
" transform="scale(0.015625)"/>
      <path id="ArialMT-70" d="M 422 -1272 
L 422 3319 
L 934 3319 
L 934 2888 
Q 1116 3141 1344 3267 
Q 1572 3394 1897 3394 
Q 2322 3394 2647 3175 
Q 2972 2956 3137 2557 
Q 3303 2159 3303 1684 
Q 3303 1175 3120 767 
Q 2938 359 2589 142 
Q 2241 -75 1856 -75 
Q 1575 -75 1351 44 
Q 1128 163 984 344 
L 984 -1272 
L 422 -1272 
z
M 931 1641 
Q 931 1000 1190 694 
Q 1450 388 1819 388 
Q 2194 388 2461 705 
Q 2728 1022 2728 1688 
Q 2728 2322 2467 2637 
Q 2206 2953 1844 2953 
Q 1484 2953 1207 2617 
Q 931 2281 931 1641 
z
" transform="scale(0.015625)"/>
      <path id="ArialMT-65" d="M 2694 1069 
L 3275 997 
Q 3138 488 2766 206 
Q 2394 -75 1816 -75 
Q 1088 -75 661 373 
Q 234 822 234 1631 
Q 234 2469 665 2931 
Q 1097 3394 1784 3394 
Q 2450 3394 2872 2941 
Q 3294 2488 3294 1666 
Q 3294 1616 3291 1516 
L 816 1516 
Q 847 969 1125 678 
Q 1403 388 1819 388 
Q 2128 388 2347 550 
Q 2566 713 2694 1069 
z
M 847 1978 
L 2700 1978 
Q 2663 2397 2488 2606 
Q 2219 2931 1791 2931 
Q 1403 2931 1139 2672 
Q 875 2413 847 1978 
z
" transform="scale(0.015625)"/>
      <path id="ArialMT-61" d="M 2588 409 
Q 2275 144 1986 34 
Q 1697 -75 1366 -75 
Q 819 -75 525 192 
Q 231 459 231 875 
Q 231 1119 342 1320 
Q 453 1522 633 1644 
Q 813 1766 1038 1828 
Q 1203 1872 1538 1913 
Q 2219 1994 2541 2106 
Q 2544 2222 2544 2253 
Q 2544 2597 2384 2738 
Q 2169 2928 1744 2928 
Q 1347 2928 1158 2789 
Q 969 2650 878 2297 
L 328 2372 
Q 403 2725 575 2942 
Q 747 3159 1072 3276 
Q 1397 3394 1825 3394 
Q 2250 3394 2515 3294 
Q 2781 3194 2906 3042 
Q 3031 2891 3081 2659 
Q 3109 2516 3109 2141 
L 3109 1391 
Q 3109 606 3145 398 
Q 3181 191 3288 0 
L 2700 0 
Q 2613 175 2588 409 
z
M 2541 1666 
Q 2234 1541 1622 1453 
Q 1275 1403 1131 1340 
Q 988 1278 909 1158 
Q 831 1038 831 891 
Q 831 666 1001 516 
Q 1172 366 1500 366 
Q 1825 366 2078 508 
Q 2331 650 2450 897 
Q 2541 1088 2541 1459 
L 2541 1666 
z
" transform="scale(0.015625)"/>
      <path id="ArialMT-64" d="M 2575 0 
L 2575 419 
Q 2259 -75 1647 -75 
Q 1250 -75 917 144 
Q 584 363 401 755 
Q 219 1147 219 1656 
Q 219 2153 384 2558 
Q 550 2963 881 3178 
Q 1213 3394 1622 3394 
Q 1922 3394 2156 3267 
Q 2391 3141 2538 2938 
L 2538 4581 
L 3097 4581 
L 3097 0 
L 2575 0 
z
M 797 1656 
Q 797 1019 1065 703 
Q 1334 388 1700 388 
Q 2069 388 2326 689 
Q 2584 991 2584 1609 
Q 2584 2291 2321 2609 
Q 2059 2928 1675 2928 
Q 1300 2928 1048 2622 
Q 797 2316 797 1656 
z
" transform="scale(0.015625)"/>
     </defs>
     <use xlink:href="#ArialMT-44"/>
     <use xlink:href="#ArialMT-69" x="72.216797"/>
     <use xlink:href="#ArialMT-73" x="94.433594"/>
     <use xlink:href="#ArialMT-74" x="144.433594"/>
     <use xlink:href="#ArialMT-72" x="172.216797"/>
     <use xlink:href="#ArialMT-69" x="205.517578"/>
     <use xlink:href="#ArialMT-62" x="227.734375"/>
     <use xlink:href="#ArialMT-75" x="283.349609"/>
     <use xlink:href="#ArialMT-74" x="338.964844"/>
     <use xlink:href="#ArialMT-69" x="366.748047"/>
     <use xlink:href="#ArialMT-6f" x="388.964844"/>
     <use xlink:href="#ArialMT-6e" x="444.580078"/>
     <use xlink:href="#ArialMT-20" x="500.195312"/>
     <use xlink:href="#ArialMT-6f" x="527.978516"/>
     <use xlink:href="#ArialMT-66" x="583.59375"/>
     <use xlink:href="#ArialMT-20" x="611.376953"/>
     <use xlink:href="#ArialMT-70" x="639.160156"/>
     <use xlink:href="#ArialMT-6f" x="694.775391"/>
     <use xlink:href="#ArialMT-73" x="750.390625"/>
     <use xlink:href="#ArialMT-74" x="800.390625"/>
     <use xlink:href="#ArialMT-65" x="828.173828"/>
     <use xlink:href="#ArialMT-72" x="883.789062"/>
     <use xlink:href="#ArialMT-69" x="917.089844"/>
     <use xlink:href="#ArialMT-6f" x="939.306641"/>
     <use xlink:href="#ArialMT-72" x="994.921875"/>
     <use xlink:href="#ArialMT-20" x="1028.222656"/>
     <use xlink:href="#ArialMT-61" x="1056.005859"/>
     <use xlink:href="#ArialMT-6e" x="1111.621094"/>
     <use xlink:href="#ArialMT-64" x="1167.236328"/>
     <use xlink:href="#ArialMT-20" x="1222.851562"/>
     <use xlink:href="#ArialMT-70" x="1250.634766"/>
     <use xlink:href="#ArialMT-72" x="1306.25"/>
     <use xlink:href="#ArialMT-69" x="1339.550781"/>
     <use xlink:href="#ArialMT-6f" x="1361.767578"/>
     <use xlink:href="#ArialMT-72" x="1417.382812"/>
     <use xlink:href="#ArialMT-20" x="1450.683594"/>
     <use xlink:href="#ArialMT-64" x="1478.466797"/>
     <use xlink:href="#ArialMT-61" x="1534.082031"/>
     <use xlink:href="#ArialMT-74" x="1589.697266"/>
     <use xlink:href="#ArialMT-61" x="1617.480469"/>
    </g>
   </g>
   <g id="legend_1">
    <g id="patch_7">
     <path d="M 56.829531 170.68875 
L 123.129531 170.68875 
Q 125.129531 170.68875 125.129531 168.68875 
L 125.129531 109.585625 
Q 125.129531 107.585625 123.129531 107.585625 
L 56.829531 107.585625 
Q 54.829531 107.585625 54.829531 109.585625 
L 54.829531 168.68875 
Q 54.829531 170.68875 56.829531 170.68875 
z
" style="fill: #eaeaf2; opacity: 0.8; stroke: #cccccc; stroke-linejoin: miter"/>
    </g>
    <g id="line2d_15">
     <path d="M 58.829531 115.243437 
L 68.829531 115.243437 
L 78.829531 115.243437 
" style="fill: none; stroke-dasharray: 5.55,2.4; stroke-dashoffset: 0; stroke: #0000ff; stroke-width: 1.5"/>
    </g>
    <g id="text_15">
     <!-- $sin(x)$ -->
     <g style="fill: #262626" transform="translate(86.829531 118.743437)scale(0.1 -0.1)">
      <defs>
       <path id="DejaVuSans-Oblique-73" d="M 3200 3397 
L 3091 2853 
Q 2863 2978 2609 3040 
Q 2356 3103 2088 3103 
Q 1634 3103 1373 2948 
Q 1113 2794 1113 2528 
Q 1113 2219 1719 2053 
Q 1766 2041 1788 2034 
L 1972 1978 
Q 2547 1819 2739 1644 
Q 2931 1469 2931 1166 
Q 2931 609 2489 259 
Q 2047 -91 1331 -91 
Q 1053 -91 747 -37 
Q 441 16 72 128 
L 184 722 
Q 500 559 806 475 
Q 1113 391 1394 391 
Q 1816 391 2080 572 
Q 2344 753 2344 1031 
Q 2344 1331 1650 1516 
L 1591 1531 
L 1394 1581 
Q 956 1697 753 1886 
Q 550 2075 550 2369 
Q 550 2928 970 3256 
Q 1391 3584 2113 3584 
Q 2397 3584 2667 3537 
Q 2938 3491 3200 3397 
z
" transform="scale(0.015625)"/>
       <path id="DejaVuSans-Oblique-69" d="M 1172 4863 
L 1747 4863 
L 1606 4134 
L 1031 4134 
L 1172 4863 
z
M 909 3500 
L 1484 3500 
L 800 0 
L 225 0 
L 909 3500 
z
" transform="scale(0.015625)"/>
       <path id="DejaVuSans-Oblique-6e" d="M 3566 2113 
L 3156 0 
L 2578 0 
L 2988 2091 
Q 3016 2238 3031 2350 
Q 3047 2463 3047 2528 
Q 3047 2791 2881 2937 
Q 2716 3084 2419 3084 
Q 1956 3084 1622 2776 
Q 1288 2469 1184 1941 
L 800 0 
L 225 0 
L 903 3500 
L 1478 3500 
L 1363 2950 
Q 1603 3253 1940 3418 
Q 2278 3584 2650 3584 
Q 3113 3584 3367 3334 
Q 3622 3084 3622 2631 
Q 3622 2519 3608 2391 
Q 3594 2263 3566 2113 
z
" transform="scale(0.015625)"/>
       <path id="DejaVuSans-28" d="M 1984 4856 
Q 1566 4138 1362 3434 
Q 1159 2731 1159 2009 
Q 1159 1288 1364 580 
Q 1569 -128 1984 -844 
L 1484 -844 
Q 1016 -109 783 600 
Q 550 1309 550 2009 
Q 550 2706 781 3412 
Q 1013 4119 1484 4856 
L 1984 4856 
z
" transform="scale(0.015625)"/>
       <path id="DejaVuSans-29" d="M 513 4856 
L 1013 4856 
Q 1481 4119 1714 3412 
Q 1947 2706 1947 2009 
Q 1947 1309 1714 600 
Q 1481 -109 1013 -844 
L 513 -844 
Q 928 -128 1133 580 
Q 1338 1288 1338 2009 
Q 1338 2731 1133 3434 
Q 928 4138 513 4856 
z
" transform="scale(0.015625)"/>
      </defs>
      <use xlink:href="#DejaVuSans-Oblique-73" transform="translate(0 0.015625)"/>
      <use xlink:href="#DejaVuSans-Oblique-69" transform="translate(52.099609 0.015625)"/>
      <use xlink:href="#DejaVuSans-Oblique-6e" transform="translate(79.882812 0.015625)"/>
      <use xlink:href="#DejaVuSans-28" transform="translate(143.261719 0.015625)"/>
      <use xlink:href="#DejaVuSans-Oblique-78" transform="translate(182.275391 0.015625)"/>
      <use xlink:href="#DejaVuSans-29" transform="translate(241.455078 0.015625)"/>
     </g>
    </g>
    <g id="patch_8">
     <path d="M 58.829531 133.230937 
L 78.829531 133.230937 
L 78.829531 126.230937 
L 58.829531 126.230937 
z
" style="fill: #ff0000; fill-opacity: 0.15; stroke: #ff0000; stroke-opacity: 0.15; stroke-linejoin: miter"/>
    </g>
    <g id="text_16">
     <!-- $2\sigma_{2|1}$ -->
     <g style="fill: #262626" transform="translate(86.829531 133.230937)scale(0.1 -0.1)">
      <defs>
       <path id="DejaVuSans-32" d="M 1228 531 
L 3431 531 
L 3431 0 
L 469 0 
L 469 531 
Q 828 903 1448 1529 
Q 2069 2156 2228 2338 
Q 2531 2678 2651 2914 
Q 2772 3150 2772 3378 
Q 2772 3750 2511 3984 
Q 2250 4219 1831 4219 
Q 1534 4219 1204 4116 
Q 875 4013 500 3803 
L 500 4441 
Q 881 4594 1212 4672 
Q 1544 4750 1819 4750 
Q 2544 4750 2975 4387 
Q 3406 4025 3406 3419 
Q 3406 3131 3298 2873 
Q 3191 2616 2906 2266 
Q 2828 2175 2409 1742 
Q 1991 1309 1228 531 
z
" transform="scale(0.015625)"/>
       <path id="DejaVuSans-Oblique-3c3" d="M 2219 3044 
Q 1744 3044 1422 2700 
Q 1081 2341 969 1747 
Q 844 1119 1044 756 
Q 1241 397 1706 397 
Q 2166 397 2503 759 
Q 2844 1122 2966 1747 
Q 3075 2319 2881 2700 
Q 2700 3044 2219 3044 
z
M 2309 3503 
L 4219 3500 
L 4106 2925 
L 3463 2925 
Q 3706 2438 3575 1747 
Q 3406 888 2884 400 
Q 2359 -91 1609 -91 
Q 856 -91 525 400 
Q 194 888 363 1747 
Q 528 2609 1050 3097 
Q 1484 3503 2309 3503 
z
" transform="scale(0.015625)"/>
       <path id="DejaVuSans-7c" d="M 1344 4891 
L 1344 -1509 
L 813 -1509 
L 813 4891 
L 1344 4891 
z
" transform="scale(0.015625)"/>
       <path id="DejaVuSans-31" d="M 794 531 
L 1825 531 
L 1825 4091 
L 703 3866 
L 703 4441 
L 1819 4666 
L 2450 4666 
L 2450 531 
L 3481 531 
L 3481 0 
L 794 0 
L 794 531 
z
" transform="scale(0.015625)"/>
      </defs>
      <use xlink:href="#DejaVuSans-32" transform="translate(0 0.78125)"/>
      <use xlink:href="#DejaVuSans-Oblique-3c3" transform="translate(63.623047 0.78125)"/>
      <use xlink:href="#DejaVuSans-32" transform="translate(127.001953 -15.625)scale(0.7)"/>
      <use xlink:href="#DejaVuSans-7c" transform="translate(171.538086 -15.625)scale(0.7)"/>
      <use xlink:href="#DejaVuSans-31" transform="translate(195.12207 -15.625)scale(0.7)"/>
     </g>
    </g>
    <g id="line2d_16">
     <path d="M 58.829531 145.18875 
L 68.829531 145.18875 
L 78.829531 145.18875 
" style="fill: none; stroke: #ff0000; stroke-width: 2; stroke-linecap: round"/>
    </g>
    <g id="text_17">
     <!-- $\mu_{2|1}$ -->
     <g style="fill: #262626" transform="translate(86.829531 148.68875)scale(0.1 -0.1)">
      <defs>
       <path id="DejaVuSans-Oblique-3bc" d="M -84 -1331 
L 856 3500 
L 1434 3500 
L 1009 1322 
Q 997 1256 987 1175 
Q 978 1094 978 1013 
Q 978 722 1161 565 
Q 1344 409 1684 409 
Q 2147 409 2431 671 
Q 2716 934 2816 1459 
L 3213 3500 
L 3788 3500 
L 3266 809 
Q 3253 750 3248 706 
Q 3244 663 3244 628 
Q 3244 531 3283 486 
Q 3322 441 3406 441 
Q 3438 441 3492 456 
Q 3547 472 3647 513 
L 3559 50 
Q 3422 -19 3297 -55 
Q 3172 -91 3053 -91 
Q 2847 -91 2730 40 
Q 2613 172 2613 403 
Q 2438 153 2195 31 
Q 1953 -91 1625 -91 
Q 1334 -91 1117 43 
Q 900 178 831 397 
L 494 -1331 
L -84 -1331 
z
" transform="scale(0.015625)"/>
      </defs>
      <use xlink:href="#DejaVuSans-Oblique-3bc" transform="translate(0 0.3125)"/>
      <use xlink:href="#DejaVuSans-32" transform="translate(63.623047 -16.09375)scale(0.7)"/>
      <use xlink:href="#DejaVuSans-7c" transform="translate(108.15918 -16.09375)scale(0.7)"/>
      <use xlink:href="#DejaVuSans-31" transform="translate(131.743164 -16.09375)scale(0.7)"/>
     </g>
    </g>
    <g id="line2d_17">
     <g>
      <use xlink:href="#mb45b2cc59f" x="68.829531" y="161.08875" style="stroke: #000000"/>
     </g>
    </g>
    <g id="text_18">
     <!-- $(x_1, y_1)$ -->
     <g style="fill: #262626" transform="translate(86.829531 164.58875)scale(0.1 -0.1)">
      <defs>
       <path id="DejaVuSans-2c" d="M 750 794 
L 1409 794 
L 1409 256 
L 897 -744 
L 494 -744 
L 750 256 
L 750 794 
z
" transform="scale(0.015625)"/>
      </defs>
      <use xlink:href="#DejaVuSans-28" transform="translate(0 0.125)"/>
      <use xlink:href="#DejaVuSans-Oblique-78" transform="translate(39.013672 0.125)"/>
      <use xlink:href="#DejaVuSans-31" transform="translate(98.193359 -16.28125)scale(0.7)"/>
      <use xlink:href="#DejaVuSans-2c" transform="translate(145.463867 0.125)"/>
      <use xlink:href="#DejaVuSans-Oblique-79" transform="translate(196.733398 0.125)"/>
      <use xlink:href="#DejaVuSans-31" transform="translate(255.913086 -16.28125)scale(0.7)"/>
      <use xlink:href="#DejaVuSans-29" transform="translate(303.183594 0.125)"/>
     </g>
    </g>
   </g>
  </g>
  <g id="axes_2">
   <g id="patch_9">
    <path d="M 49.829531 386.28875 
L 697.729531 386.28875 
L 697.729531 232.535625 
L 49.829531 232.535625 
z
" style="fill: #eaeaf2"/>
   </g>
   <g id="matplotlib.axis_3">
    <g id="xtick_7">
     <g id="line2d_18">
      <path d="M 49.829531 386.28875 
L 49.829531 232.535625 
" clip-path="url(#paa075a5057)" style="fill: none; stroke: #ffffff; stroke-width: 0.8; stroke-linecap: round"/>
     </g>
     <g id="text_19">
      <!-- 0 -->
      <g style="fill: #262626" transform="translate(47.049063 400.446562)scale(0.1 -0.1)">
       <use xlink:href="#ArialMT-30"/>
      </g>
     </g>
    </g>
    <g id="xtick_8">
     <g id="line2d_19">
      <path d="M 179.409531 386.28875 
L 179.409531 232.535625 
" clip-path="url(#paa075a5057)" style="fill: none; stroke: #ffffff; stroke-width: 0.8; stroke-linecap: round"/>
     </g>
     <g id="text_20">
      <!-- 2 -->
      <g style="fill: #262626" transform="translate(176.629063 400.446562)scale(0.1 -0.1)">
       <use xlink:href="#ArialMT-32"/>
      </g>
     </g>
    </g>
    <g id="xtick_9">
     <g id="line2d_20">
      <path d="M 308.989531 386.28875 
L 308.989531 232.535625 
" clip-path="url(#paa075a5057)" style="fill: none; stroke: #ffffff; stroke-width: 0.8; stroke-linecap: round"/>
     </g>
     <g id="text_21">
      <!-- 4 -->
      <g style="fill: #262626" transform="translate(306.209063 400.446562)scale(0.1 -0.1)">
       <use xlink:href="#ArialMT-34"/>
      </g>
     </g>
    </g>
    <g id="xtick_10">
     <g id="line2d_21">
      <path d="M 438.569531 386.28875 
L 438.569531 232.535625 
" clip-path="url(#paa075a5057)" style="fill: none; stroke: #ffffff; stroke-width: 0.8; stroke-linecap: round"/>
     </g>
     <g id="text_22">
      <!-- 6 -->
      <g style="fill: #262626" transform="translate(435.789062 400.446562)scale(0.1 -0.1)">
       <use xlink:href="#ArialMT-36"/>
      </g>
     </g>
    </g>
    <g id="xtick_11">
     <g id="line2d_22">
      <path d="M 568.149531 386.28875 
L 568.149531 232.535625 
" clip-path="url(#paa075a5057)" style="fill: none; stroke: #ffffff; stroke-width: 0.8; stroke-linecap: round"/>
     </g>
     <g id="text_23">
      <!-- 8 -->
      <g style="fill: #262626" transform="translate(565.369063 400.446562)scale(0.1 -0.1)">
       <use xlink:href="#ArialMT-38"/>
      </g>
     </g>
    </g>
    <g id="xtick_12">
     <g id="line2d_23">
      <path d="M 697.729531 386.28875 
L 697.729531 232.535625 
" clip-path="url(#paa075a5057)" style="fill: none; stroke: #ffffff; stroke-width: 0.8; stroke-linecap: round"/>
     </g>
     <g id="text_24">
      <!-- 10 -->
      <g style="fill: #262626" transform="translate(692.168594 400.446562)scale(0.1 -0.1)">
       <use xlink:href="#ArialMT-31"/>
       <use xlink:href="#ArialMT-30" x="55.615234"/>
      </g>
     </g>
    </g>
    <g id="text_25">
     <!-- $x$ -->
     <g style="fill: #262626" transform="translate(369.879531 415.739219)scale(0.13 -0.13)">
      <use xlink:href="#DejaVuSans-Oblique-78" transform="translate(0 0.3125)"/>
     </g>
    </g>
   </g>
   <g id="matplotlib.axis_4">
    <g id="ytick_6">
     <g id="line2d_24">
      <path d="M 49.829531 360.670764 
L 697.729531 360.670764 
" clip-path="url(#paa075a5057)" style="fill: none; stroke: #ffffff; stroke-width: 0.8; stroke-linecap: round"/>
     </g>
     <g id="text_26">
      <!-- −1.0 -->
      <g style="fill: #262626" transform="translate(23.088906 364.249671)scale(0.1 -0.1)">
       <use xlink:href="#ArialMT-2212"/>
       <use xlink:href="#ArialMT-31" x="58.398438"/>
       <use xlink:href="#ArialMT-2e" x="114.013672"/>
       <use xlink:href="#ArialMT-30" x="141.796875"/>
      </g>
     </g>
    </g>
    <g id="ytick_7">
     <g id="line2d_25">
      <path d="M 49.829531 335.041733 
L 697.729531 335.041733 
" clip-path="url(#paa075a5057)" style="fill: none; stroke: #ffffff; stroke-width: 0.8; stroke-linecap: round"/>
     </g>
     <g id="text_27">
      <!-- −0.5 -->
      <g style="fill: #262626" transform="translate(23.088906 338.620639)scale(0.1 -0.1)">
       <use xlink:href="#ArialMT-2212"/>
       <use xlink:href="#ArialMT-30" x="58.398438"/>
       <use xlink:href="#ArialMT-2e" x="114.013672"/>
       <use xlink:href="#ArialMT-35" x="141.796875"/>
      </g>
     </g>
    </g>
    <g id="ytick_8">
     <g id="line2d_26">
      <path d="M 49.829531 309.412701 
L 697.729531 309.412701 
" clip-path="url(#paa075a5057)" style="fill: none; stroke: #ffffff; stroke-width: 0.8; stroke-linecap: round"/>
     </g>
     <g id="text_28">
      <!-- 0.0 -->
      <g style="fill: #262626" transform="translate(28.929531 312.991607)scale(0.1 -0.1)">
       <use xlink:href="#ArialMT-30"/>
       <use xlink:href="#ArialMT-2e" x="55.615234"/>
       <use xlink:href="#ArialMT-30" x="83.398438"/>
      </g>
     </g>
    </g>
    <g id="ytick_9">
     <g id="line2d_27">
      <path d="M 49.829531 283.783669 
L 697.729531 283.783669 
" clip-path="url(#paa075a5057)" style="fill: none; stroke: #ffffff; stroke-width: 0.8; stroke-linecap: round"/>
     </g>
     <g id="text_29">
      <!-- 0.5 -->
      <g style="fill: #262626" transform="translate(28.929531 287.362576)scale(0.1 -0.1)">
       <use xlink:href="#ArialMT-30"/>
       <use xlink:href="#ArialMT-2e" x="55.615234"/>
       <use xlink:href="#ArialMT-35" x="83.398438"/>
      </g>
     </g>
    </g>
    <g id="ytick_10">
     <g id="line2d_28">
      <path d="M 49.829531 258.154638 
L 697.729531 258.154638 
" clip-path="url(#paa075a5057)" style="fill: none; stroke: #ffffff; stroke-width: 0.8; stroke-linecap: round"/>
     </g>
     <g id="text_30">
      <!-- 1.0 -->
      <g style="fill: #262626" transform="translate(28.929531 261.733544)scale(0.1 -0.1)">
       <use xlink:href="#ArialMT-31"/>
       <use xlink:href="#ArialMT-2e" x="55.615234"/>
       <use xlink:href="#ArialMT-30" x="83.398438"/>
      </g>
     </g>
    </g>
    <g id="text_31">
     <!-- $y$ -->
     <g style="fill: #262626" transform="translate(16.358906 313.312187)rotate(-90)scale(0.13 -0.13)">
      <use xlink:href="#DejaVuSans-Oblique-79" transform="translate(0 0.3125)"/>
     </g>
    </g>
   </g>
   <g id="line2d_29">
    <path d="M 49.829531 368.916567 
L 58.584937 357.668761 
L 67.340342 345.686441 
L 76.095747 333.940668 
L 84.851153 323.390528 
L 93.606558 314.816431 
L 102.361964 308.678433 
L 111.117369 305.034741 
L 119.872774 303.541851 
L 128.62818 303.537546 
L 137.383585 304.187856 
L 146.138991 304.664183 
L 154.894396 304.311517 
L 163.649802 302.773013 
L 172.405207 300.048913 
L 181.160612 296.483416 
L 189.916018 292.68804 
L 198.671423 289.420572 
L 207.426829 287.443417 
L 216.182234 287.385789 
L 224.937639 289.631202 
L 233.693045 294.247298 
L 242.44845 300.969394 
L 251.203856 309.241531 
L 259.959261 318.309466 
L 268.714666 327.349657 
L 277.470072 335.609308 
L 286.225477 342.528162 
L 294.980883 347.815313 
L 303.736288 351.464581 
L 312.491693 353.707521 
L 321.247099 354.91906 
L 330.002504 355.502619 
L 338.75791 355.785042 
L 347.513315 355.946413 
L 356.26872 355.997734 
L 365.024126 355.805032 
L 373.779531 355.146405 
L 382.534937 353.781986 
L 391.290342 351.517249 
L 400.045747 348.245677 
L 408.801153 343.965298 
L 417.556558 338.771293 
L 426.311964 332.832225 
L 435.067369 326.358811 
L 443.822774 319.573095 
L 452.57818 312.682727 
L 461.333585 305.862765 
L 470.088991 299.245375 
L 478.844396 292.917602 
L 487.599802 286.927367 
L 496.355207 281.297555 
L 505.110612 276.047064 
L 513.866018 271.215911 
L 522.621423 266.889357 
L 531.376829 263.215195 
L 540.132234 260.408387 
L 548.887639 258.739513 
L 557.643045 258.506637 
L 566.39845 259.994013 
L 575.153856 263.423879 
L 583.909261 268.909807 
L 592.664666 276.419652 
L 601.420072 285.75475 
L 610.175477 296.548536 
L 618.930883 308.284308 
L 627.686288 320.328063 
L 636.441693 331.970507 
L 645.197099 342.471973 
L 653.952504 351.105875 
L 662.70791 357.199299 
L 671.463315 360.172197 
L 680.21872 359.578218 
L 688.974126 355.148925 
L 697.729531 346.839917 
" clip-path="url(#paa075a5057)" style="fill: none; stroke: #1f77b4; stroke-width: 1.5; stroke-linecap: round"/>
   </g>
   <g id="line2d_30">
    <path d="M 49.829531 332.539595 
L 58.584937 337.1948 
L 67.340342 341.86732 
L 76.095747 346.274235 
L 84.851153 350.039248 
L 93.606558 352.738016 
L 102.361964 353.953182 
L 111.117369 353.331723 
L 119.872774 350.63778 
L 128.62818 345.795776 
L 137.383585 338.920298 
L 146.138991 330.330269 
L 154.894396 320.544728 
L 163.649802 310.25676 
L 172.405207 300.282351 
L 181.160612 291.483303 
L 189.916018 284.668707 
L 198.671423 280.486928 
L 207.426829 279.326996 
L 216.182234 281.251621 
L 224.937639 285.981033 
L 233.693045 292.937066 
L 242.44845 301.342121 
L 251.203856 310.352965 
L 259.959261 319.19903 
L 268.714666 327.293463 
L 277.470072 334.293089 
L 286.225477 340.098142 
L 294.980883 344.799442 
L 303.736288 348.593943 
L 312.491693 351.695415 
L 321.247099 354.264137 
L 330.002504 356.370065 
L 338.75791 357.991599 
L 347.513315 359.04134 
L 356.26872 359.404471 
L 365.024126 358.975526 
L 373.779531 357.68381 
L 382.534937 355.504459 
L 391.290342 352.457266 
L 400.045747 348.598227 
L 408.801153 344.008061 
L 417.556558 338.780319 
L 426.311964 333.010138 
L 435.067369 326.784524 
L 443.822774 320.176465 
L 452.57818 313.246042 
L 461.333585 306.051298 
L 470.088991 298.668543 
L 478.844396 291.217378 
L 487.599802 283.881583 
L 496.355207 276.915897 
L 505.110612 270.631294 
L 513.866018 265.357805 
L 522.621423 261.391629 
L 531.376829 258.93921 
L 540.132234 258.073235 
L 548.887639 258.712249 
L 557.643045 260.629024 
L 566.39845 263.484348 
L 575.153856 266.877089 
L 583.909261 270.398608 
L 592.664666 273.681584 
L 601.420072 276.437834 
L 610.175477 278.484202 
L 618.930883 279.758036 
L 627.686288 280.323237 
L 636.441693 280.365307 
L 645.197099 280.171616 
L 653.952504 280.093402 
L 662.70791 280.489994 
L 671.463315 281.661998 
L 680.21872 283.786597 
L 688.974126 286.871168 
L 697.729531 290.73932 
" clip-path="url(#paa075a5057)" style="fill: none; stroke: #ff7f0e; stroke-width: 1.5; stroke-linecap: round"/>
   </g>
   <g id="line2d_31">
    <path d="M 49.829531 329.610016 
L 58.584937 329.144472 
L 67.340342 328.912284 
L 76.095747 329.126554 
L 84.851153 329.911098 
L 93.606558 331.263136 
L 102.361964 333.033995 
L 111.117369 334.932879 
L 119.872774 336.557655 
L 128.62818 337.452981 
L 137.383585 337.189737 
L 146.138991 335.452588 
L 154.894396 332.116978 
L 163.649802 327.296302 
L 172.405207 321.345263 
L 181.160612 314.815838 
L 189.916018 308.374444 
L 198.671423 302.698823 
L 207.426829 298.377608 
L 216.182234 295.833457 
L 224.937639 295.282587 
L 233.693045 296.733263 
L 242.44845 300.016067 
L 251.203856 304.832841 
L 259.959261 310.809903 
L 268.714666 317.544286 
L 277.470072 324.637208 
L 286.225477 331.714677 
L 294.980883 338.438883 
L 303.736288 344.515718 
L 312.491693 349.702395 
L 321.247099 353.816904 
L 330.002504 356.748234 
L 338.75791 358.464215 
L 347.513315 359.013305 
L 356.26872 358.517113 
L 365.024126 357.152299 
L 373.779531 355.122728 
L 382.534937 352.624821 
L 391.290342 349.811169 
L 400.045747 346.757995 
L 408.801153 343.442704 
L 417.556558 339.736959 
L 426.311964 335.419594 
L 435.067369 330.2117 
L 443.822774 323.832962 
L 452.57818 316.074259 
L 461.333585 306.876206 
L 470.088991 296.39885 
L 478.844396 285.064922 
L 487.599802 273.560352 
L 496.355207 262.781897 
L 505.110612 253.732138 
L 513.866018 247.374981 
L 522.621423 244.476496 
L 531.376829 245.463022 
L 540.132234 250.328347 
L 548.887639 258.613614 
L 557.643045 269.468801 
L 566.39845 281.786646 
L 575.153856 294.383157 
L 583.909261 306.187518 
L 592.664666 316.40173 
L 601.420072 324.597096 
L 610.175477 330.729831 
L 618.930883 335.07726 
L 627.686288 338.115223 
L 636.441693 340.370556 
L 645.197099 342.287049 
L 653.952504 344.137231 
L 662.70791 345.997754 
L 671.463315 347.786812 
L 680.21872 349.344126 
L 688.974126 350.52256 
L 697.729531 351.259402 
" clip-path="url(#paa075a5057)" style="fill: none; stroke: #2ca02c; stroke-width: 1.5; stroke-linecap: round"/>
   </g>
   <g id="line2d_32">
    <path d="M 49.829531 295.077914 
L 58.584937 294.233896 
L 67.340342 294.219325 
L 76.095747 294.597302 
L 84.851153 294.91678 
L 93.606558 294.788213 
L 102.361964 293.948476 
L 111.117369 292.303703 
L 119.872774 289.943208 
L 128.62818 287.123013 
L 137.383585 284.222067 
L 146.138991 281.677636 
L 154.894396 279.909086 
L 163.649802 279.241404 
L 172.405207 279.841032 
L 181.160612 281.676681 
L 189.916018 284.514836 
L 198.671423 287.954791 
L 207.426829 291.500461 
L 216.182234 294.658208 
L 224.937639 297.043398 
L 233.693045 298.474893 
L 242.44845 299.037217 
L 251.203856 299.094868 
L 259.959261 299.251283 
L 268.714666 300.254663 
L 277.470072 302.863415 
L 286.225477 307.692746 
L 294.980883 315.070029 
L 303.736288 324.927913 
L 312.491693 336.759917 
L 321.247099 349.653612 
L 330.002504 362.402035 
L 338.75791 373.67837 
L 347.513315 382.244329 
L 356.26872 387.15382 
L 365.024126 387.911798 
L 373.779531 384.55569 
L 382.534937 377.64135 
L 391.290342 368.134906 
L 400.045747 357.231675 
L 408.801153 346.138638 
L 417.556558 335.864852 
L 426.311964 327.061963 
L 435.067369 319.945589 
L 443.822774 314.310339 
L 452.57818 309.630707 
L 461.333585 305.22229 
L 470.088991 300.426223 
L 478.844396 294.777186 
L 487.599802 288.121511 
L 496.355207 280.66494 
L 505.110612 272.945731 
L 513.866018 265.744362 
L 522.621423 259.952281 
L 531.376829 256.42706 
L 540.132234 255.859822 
L 548.887639 258.674145 
L 557.643045 264.966779 
L 566.39845 274.492017 
L 575.153856 286.685952 
L 583.909261 300.72419 
L 592.664666 315.606335 
L 601.420072 330.260761 
L 610.175477 343.661369 
L 618.930883 354.944563 
L 627.686288 363.509999 
L 636.441693 369.086152 
L 645.197099 371.743918 
L 653.952504 371.850455 
L 662.70791 369.96927 
L 671.463315 366.727578 
L 680.21872 362.682409 
L 688.974126 358.218427 
L 697.729531 353.501467 
" clip-path="url(#paa075a5057)" style="fill: none; stroke: #d62728; stroke-width: 1.5; stroke-linecap: round"/>
   </g>
   <g id="line2d_33">
    <path d="M 49.829531 376.426115 
L 58.584937 379.642392 
L 67.340342 382.552613 
L 76.095747 384.949205 
L 84.851153 386.606576 
L 93.606558 387.282694 
L 102.361964 386.725945 
L 111.117369 384.694265 
L 119.872774 380.990023 
L 128.62818 375.507227 
L 137.383585 368.28075 
L 146.138991 359.522548 
L 154.894396 349.630463 
L 163.649802 339.160949 
L 172.405207 328.766675 
L 181.160612 319.110429 
L 189.916018 310.774377 
L 198.671423 304.18599 
L 207.426829 299.57778 
L 216.182234 296.988437 
L 224.937639 296.301034 
L 233.693045 297.303537 
L 242.44845 299.751508 
L 251.203856 303.414516 
L 259.959261 308.095353 
L 268.714666 313.622203 
L 277.470072 319.824055 
L 286.225477 326.504424 
L 294.980883 333.427247 
L 303.736288 340.321393 
L 312.491693 346.901172 
L 321.247099 352.892865 
L 330.002504 358.055565 
L 338.75791 362.188599 
L 347.513315 365.125635 
L 356.26872 366.723402 
L 365.024126 366.856674 
L 373.779531 365.428941 
L 382.534937 362.400698 
L 391.290342 357.82779 
L 400.045747 351.894479 
L 408.801153 344.924268 
L 417.556558 337.356233 
L 426.311964 329.685394 
L 435.067369 322.378146 
L 443.822774 315.783834 
L 452.57818 310.067385 
L 461.333585 305.183595 
L 470.088991 300.90258 
L 478.844396 296.881067 
L 487.599802 292.761063 
L 496.355207 288.269538 
L 505.110612 283.293259 
L 513.866018 277.910899 
L 522.621423 272.377355 
L 531.376829 267.068393 
L 540.132234 262.402904 
L 548.887639 258.763197 
L 557.643045 256.430082 
L 566.39845 255.542299 
L 575.153856 256.081728 
L 583.909261 257.880081 
L 592.664666 260.641362 
L 601.420072 263.975791 
L 610.175477 267.443707 
L 618.930883 270.609211 
L 627.686288 273.101065 
L 636.441693 274.6736 
L 645.197099 275.255054 
L 653.952504 274.968356 
L 662.70791 274.112764 
L 671.463315 273.103908 
L 680.21872 272.382959 
L 688.974126 272.317309 
L 697.729531 273.121106 
" clip-path="url(#paa075a5057)" style="fill: none; stroke: #9467bd; stroke-width: 1.5; stroke-linecap: round"/>
   </g>
   <g id="patch_10">
    <path d="M 49.829531 386.28875 
L 49.829531 232.535625 
" style="fill: none; stroke: #ffffff; stroke-width: 0.8; stroke-linejoin: miter; stroke-linecap: square"/>
   </g>
   <g id="patch_11">
    <path d="M 697.729531 386.28875 
L 697.729531 232.535625 
" style="fill: none; stroke: #ffffff; stroke-width: 0.8; stroke-linejoin: miter; stroke-linecap: square"/>
   </g>
   <g id="patch_12">
    <path d="M 49.829531 386.28875 
L 697.729531 386.28875 
" style="fill: none; stroke: #ffffff; stroke-width: 0.8; stroke-linejoin: miter; stroke-linecap: square"/>
   </g>
   <g id="patch_13">
    <path d="M 49.829531 232.535625 
L 697.729531 232.535625 
" style="fill: none; stroke: #ffffff; stroke-width: 0.8; stroke-linejoin: miter; stroke-linecap: square"/>
   </g>
   <g id="text_32">
    <!-- 5 different function realizations from posterior -->
    <g style="fill: #262626" transform="translate(253.834844 226.535625)scale(0.12 -0.12)">
     <defs>
      <path id="ArialMT-63" d="M 2588 1216 
L 3141 1144 
Q 3050 572 2676 248 
Q 2303 -75 1759 -75 
Q 1078 -75 664 370 
Q 250 816 250 1647 
Q 250 2184 428 2587 
Q 606 2991 970 3192 
Q 1334 3394 1763 3394 
Q 2303 3394 2647 3120 
Q 2991 2847 3088 2344 
L 2541 2259 
Q 2463 2594 2264 2762 
Q 2066 2931 1784 2931 
Q 1359 2931 1093 2626 
Q 828 2322 828 1663 
Q 828 994 1084 691 
Q 1341 388 1753 388 
Q 2084 388 2306 591 
Q 2528 794 2588 1216 
z
" transform="scale(0.015625)"/>
      <path id="ArialMT-6c" d="M 409 0 
L 409 4581 
L 972 4581 
L 972 0 
L 409 0 
z
" transform="scale(0.015625)"/>
      <path id="ArialMT-7a" d="M 125 0 
L 125 456 
L 2238 2881 
Q 1878 2863 1603 2863 
L 250 2863 
L 250 3319 
L 2963 3319 
L 2963 2947 
L 1166 841 
L 819 456 
Q 1197 484 1528 484 
L 3063 484 
L 3063 0 
L 125 0 
z
" transform="scale(0.015625)"/>
      <path id="ArialMT-6d" d="M 422 0 
L 422 3319 
L 925 3319 
L 925 2853 
Q 1081 3097 1340 3245 
Q 1600 3394 1931 3394 
Q 2300 3394 2536 3241 
Q 2772 3088 2869 2813 
Q 3263 3394 3894 3394 
Q 4388 3394 4653 3120 
Q 4919 2847 4919 2278 
L 4919 0 
L 4359 0 
L 4359 2091 
Q 4359 2428 4304 2576 
Q 4250 2725 4106 2815 
Q 3963 2906 3769 2906 
Q 3419 2906 3187 2673 
Q 2956 2441 2956 1928 
L 2956 0 
L 2394 0 
L 2394 2156 
Q 2394 2531 2256 2718 
Q 2119 2906 1806 2906 
Q 1569 2906 1367 2781 
Q 1166 2656 1075 2415 
Q 984 2175 984 1722 
L 984 0 
L 422 0 
z
" transform="scale(0.015625)"/>
     </defs>
     <use xlink:href="#ArialMT-35"/>
     <use xlink:href="#ArialMT-20" x="55.615234"/>
     <use xlink:href="#ArialMT-64" x="83.398438"/>
     <use xlink:href="#ArialMT-69" x="139.013672"/>
     <use xlink:href="#ArialMT-66" x="161.230469"/>
     <use xlink:href="#ArialMT-66" x="187.263672"/>
     <use xlink:href="#ArialMT-65" x="215.046875"/>
     <use xlink:href="#ArialMT-72" x="270.662109"/>
     <use xlink:href="#ArialMT-65" x="303.962891"/>
     <use xlink:href="#ArialMT-6e" x="359.578125"/>
     <use xlink:href="#ArialMT-74" x="415.193359"/>
     <use xlink:href="#ArialMT-20" x="442.976562"/>
     <use xlink:href="#ArialMT-66" x="470.759766"/>
     <use xlink:href="#ArialMT-75" x="498.542969"/>
     <use xlink:href="#ArialMT-6e" x="554.158203"/>
     <use xlink:href="#ArialMT-63" x="609.773438"/>
     <use xlink:href="#ArialMT-74" x="659.773438"/>
     <use xlink:href="#ArialMT-69" x="687.556641"/>
     <use xlink:href="#ArialMT-6f" x="709.773438"/>
     <use xlink:href="#ArialMT-6e" x="765.388672"/>
     <use xlink:href="#ArialMT-20" x="821.003906"/>
     <use xlink:href="#ArialMT-72" x="848.787109"/>
     <use xlink:href="#ArialMT-65" x="882.087891"/>
     <use xlink:href="#ArialMT-61" x="937.703125"/>
     <use xlink:href="#ArialMT-6c" x="993.318359"/>
     <use xlink:href="#ArialMT-69" x="1015.535156"/>
     <use xlink:href="#ArialMT-7a" x="1037.751953"/>
     <use xlink:href="#ArialMT-61" x="1087.751953"/>
     <use xlink:href="#ArialMT-74" x="1143.367188"/>
     <use xlink:href="#ArialMT-69" x="1171.150391"/>
     <use xlink:href="#ArialMT-6f" x="1193.367188"/>
     <use xlink:href="#ArialMT-6e" x="1248.982422"/>
     <use xlink:href="#ArialMT-73" x="1304.597656"/>
     <use xlink:href="#ArialMT-20" x="1354.597656"/>
     <use xlink:href="#ArialMT-66" x="1382.380859"/>
     <use xlink:href="#ArialMT-72" x="1410.164062"/>
     <use xlink:href="#ArialMT-6f" x="1443.464844"/>
     <use xlink:href="#ArialMT-6d" x="1499.080078"/>
     <use xlink:href="#ArialMT-20" x="1582.380859"/>
     <use xlink:href="#ArialMT-70" x="1610.164062"/>
     <use xlink:href="#ArialMT-6f" x="1665.779297"/>
     <use xlink:href="#ArialMT-73" x="1721.394531"/>
     <use xlink:href="#ArialMT-74" x="1771.394531"/>
     <use xlink:href="#ArialMT-65" x="1799.177734"/>
     <use xlink:href="#ArialMT-72" x="1854.792969"/>
     <use xlink:href="#ArialMT-69" x="1888.09375"/>
     <use xlink:href="#ArialMT-6f" x="1910.310547"/>
     <use xlink:href="#ArialMT-72" x="1965.925781"/>
    </g>
   </g>
  </g>
 </g>
 <defs>
  <clipPath id="p8356a584a2">
   <rect x="49.829531" y="21.935625" width="647.9" height="153.753125"/>
  </clipPath>
  <clipPath id="paa075a5057">
   <rect x="49.829531" y="232.535625" width="647.9" height="153.753125"/>
  </clipPath>
 </defs>
</svg>
